ISO-10303-21;
HEADER;
FILE_DESCRIPTION(('Open CASCADE Model'),'2;1');
FILE_NAME('Open CASCADE Shape Model','2026-09-26T12:31:33',('Author'),(
    'Open CASCADE'),'Open CASCADE STEP processor 7.9','Open CASCADE 7.9'
  ,'Unknown');
FILE_SCHEMA(('AUTOMOTIVE_DESIGN { 1 0 10303 214 1 1 1 1 }'));
ENDSEC;
DATA;
#1 = APPLICATION_PROTOCOL_DEFINITION('international standard',
  'automotive_design',2000,#2);
#2 = APPLICATION_CONTEXT(
  'core data for automotive mechanical design processes');
#3 = SHAPE_DEFINITION_REPRESENTATION(#4,#10);
#4 = PRODUCT_DEFINITION_SHAPE('','',#5);
#5 = PRODUCT_DEFINITION('design','',#6,#9);
#6 = PRODUCT_DEFINITION_FORMATION('','',#7);
#7 = PRODUCT('Open CASCADE STEP translator 7.9 5',
  'Open CASCADE STEP translator 7.9 5','',(#8));
#8 = PRODUCT_CONTEXT('',#2,'mechanical');
#9 = PRODUCT_DEFINITION_CONTEXT('part definition',#2,'design');
#10 = ADVANCED_BREP_SHAPE_REPRESENTATION('',(#11,#15),#1849);
#11 = AXIS2_PLACEMENT_3D('',#12,#13,#14);
#12 = CARTESIAN_POINT('',(0.,0.,0.));
#13 = DIRECTION('',(0.,0.,1.));
#14 = DIRECTION('',(1.,0.,-0.));
#15 = MANIFOLD_SOLID_BREP('',#16);
#16 = CLOSED_SHELL('',(#17,#308,#515,#572,#607,#774,#809,#905,#933,#938,
    #944,#999,#1318,#1373,#1428,#1483,#1538,#1593,#1648,#1703,#1758,
    #1813,#1817,#1821,#1825,#1829,#1833,#1837,#1841,#1845));
#17 = ADVANCED_FACE('',(#18),#32,.T.);
#18 = FACE_BOUND('',#19,.F.);
#19 = EDGE_LOOP('',(#20,#50,#77,#78,#139,#189,#218));
#20 = ORIENTED_EDGE('',*,*,#21,.F.);
#21 = EDGE_CURVE('',#22,#24,#26,.T.);
#22 = VERTEX_POINT('',#23);
#23 = CARTESIAN_POINT('',(9.,0.,1.000000002804E-07));
#24 = VERTEX_POINT('',#25);
#25 = CARTESIAN_POINT('',(9.,0.,4.4500001));
#26 = SEAM_CURVE('',#27,(#31,#43),.PCURVE_S1.);
#27 = LINE('',#28,#29);
#28 = CARTESIAN_POINT('',(9.,0.,1.000000002804E-07));
#29 = VECTOR('',#30,1.);
#30 = DIRECTION('',(0.,0.,1.));
#31 = PCURVE('',#32,#37);
#32 = CYLINDRICAL_SURFACE('',#33,9.);
#33 = AXIS2_PLACEMENT_3D('',#34,#35,#36);
#34 = CARTESIAN_POINT('',(0.,0.,1.000000002804E-07));
#35 = DIRECTION('',(-0.,-0.,-1.));
#36 = DIRECTION('',(1.,0.,0.));
#37 = DEFINITIONAL_REPRESENTATION('',(#38),#42);
#38 = LINE('',#39,#40);
#39 = CARTESIAN_POINT('',(-6.28318530718,0.));
#40 = VECTOR('',#41,1.);
#41 = DIRECTION('',(-0.,-1.));
#42 = ( GEOMETRIC_REPRESENTATION_CONTEXT(2) 
PARAMETRIC_REPRESENTATION_CONTEXT() REPRESENTATION_CONTEXT('2D SPACE',''
  ) );
#43 = PCURVE('',#32,#44);
#44 = DEFINITIONAL_REPRESENTATION('',(#45),#49);
#45 = LINE('',#46,#47);
#46 = CARTESIAN_POINT('',(-0.,0.));
#47 = VECTOR('',#48,1.);
#48 = DIRECTION('',(-0.,-1.));
#49 = ( GEOMETRIC_REPRESENTATION_CONTEXT(2) 
PARAMETRIC_REPRESENTATION_CONTEXT() REPRESENTATION_CONTEXT('2D SPACE',''
  ) );
#50 = ORIENTED_EDGE('',*,*,#51,.F.);
#51 = EDGE_CURVE('',#22,#22,#52,.T.);
#52 = SURFACE_CURVE('',#53,(#58,#65),.PCURVE_S1.);
#53 = CIRCLE('',#54,9.);
#54 = AXIS2_PLACEMENT_3D('',#55,#56,#57);
#55 = CARTESIAN_POINT('',(0.,0.,1.000000002804E-07));
#56 = DIRECTION('',(0.,0.,1.));
#57 = DIRECTION('',(1.,0.,0.));
#58 = PCURVE('',#32,#59);
#59 = DEFINITIONAL_REPRESENTATION('',(#60),#64);
#60 = LINE('',#61,#62);
#61 = CARTESIAN_POINT('',(-0.,0.));
#62 = VECTOR('',#63,1.);
#63 = DIRECTION('',(-1.,0.));
#64 = ( GEOMETRIC_REPRESENTATION_CONTEXT(2) 
PARAMETRIC_REPRESENTATION_CONTEXT() REPRESENTATION_CONTEXT('2D SPACE',''
  ) );
#65 = PCURVE('',#66,#71);
#66 = PLANE('',#67);
#67 = AXIS2_PLACEMENT_3D('',#68,#69,#70);
#68 = CARTESIAN_POINT('',(-3.038755850088E-16,2.403571302733E-16,
    1.000000002804E-07));
#69 = DIRECTION('',(0.,0.,1.));
#70 = DIRECTION('',(1.,0.,-0.));
#71 = DEFINITIONAL_REPRESENTATION('',(#72),#76);
#72 = CIRCLE('',#73,9.);
#73 = AXIS2_PLACEMENT_2D('',#74,#75);
#74 = CARTESIAN_POINT('',(3.038755850088E-16,-2.403571302733E-16));
#75 = DIRECTION('',(1.,0.));
#76 = ( GEOMETRIC_REPRESENTATION_CONTEXT(2) 
PARAMETRIC_REPRESENTATION_CONTEXT() REPRESENTATION_CONTEXT('2D SPACE',''
  ) );
#77 = ORIENTED_EDGE('',*,*,#21,.T.);
#78 = ORIENTED_EDGE('',*,*,#79,.T.);
#79 = EDGE_CURVE('',#24,#80,#82,.T.);
#80 = VERTEX_POINT('',#81);
#81 = CARTESIAN_POINT('',(8.865523109214,1.55,6.0000001));
#82 = SURFACE_CURVE('',#83,(#98,#116),.PCURVE_S1.);
#83 = B_SPLINE_CURVE_WITH_KNOTS('',7,(#84,#85,#86,#87,#88,#89,#90,#91,
    #92,#93,#94,#95,#96,#97),.UNSPECIFIED.,.F.,.F.,(8,6,8),(0.,
    0.456147625747,1.),.UNSPECIFIED.);
#84 = CARTESIAN_POINT('',(9.,-1.423651904009E-16,4.4500001));
#85 = CARTESIAN_POINT('',(9.,0.186648264664,4.4500001));
#86 = CARTESIAN_POINT('',(8.995483898036,0.369826818114,4.476221794025)
  );
#87 = CARTESIAN_POINT('',(8.986754807782,0.544937408148,4.526911270356)
  );
#88 = CARTESIAN_POINT('',(8.974756492795,0.707894550451,4.599278594155)
  );
#89 = CARTESIAN_POINT('',(8.960908583955,0.855356341044,4.689550094354)
  );
#90 = CARTESIAN_POINT('',(8.946632098896,0.985026900485,4.792995978807)
  );
#91 = CARTESIAN_POINT('',(8.916778846604,1.228344204116,5.036313282437)
  );
#92 = CARTESIAN_POINT('',(8.901114680887,1.337093245822,5.182340865762)
  );
#93 = CARTESIAN_POINT('',(8.887411840579,1.42293310331,5.337733584352));
#94 = CARTESIAN_POINT('',(8.876598097437,1.486655920296,5.499426326635)
  );
#95 = CARTESIAN_POINT('',(8.86921402343,1.528888759599,5.665031027052));
#96 = CARTESIAN_POINT('',(8.865523109214,1.55,5.832523685102));
#97 = CARTESIAN_POINT('',(8.865523109214,1.55,6.0000001));
#98 = PCURVE('',#32,#99);
#99 = DEFINITIONAL_REPRESENTATION('',(#100),#115);
#100 = B_SPLINE_CURVE_WITH_KNOTS('',7,(#101,#102,#103,#104,#105,#106,
    #107,#108,#109,#110,#111,#112,#113,#114),.UNSPECIFIED.,.F.,.F.,(8,6,
    8),(0.,0.456147625747,1.),.UNSPECIFIED.);
#101 = CARTESIAN_POINT('',(0.,-4.45));
#102 = CARTESIAN_POINT('',(-2.073869607374E-02,-4.45));
#103 = CARTESIAN_POINT('',(-4.10918830325E-02,-4.476221694024));
#104 = CARTESIAN_POINT('',(-6.056310534206E-02,-4.526911170356));
#105 = CARTESIAN_POINT('',(-7.871094880416E-02,-4.599278494155));
#106 = CARTESIAN_POINT('',(-9.516422169424E-02,-4.689549994354));
#107 = CARTESIAN_POINT('',(-0.109657989784,-4.792995878807));
#108 = CARTESIAN_POINT('',(-0.136895973185,-5.036313182437));
#109 = CARTESIAN_POINT('',(-0.149101219285,-5.182340765762));
#110 = CARTESIAN_POINT('',(-0.15875871844,-5.337733484352));
#111 = CARTESIAN_POINT('',(-0.165940159337,-5.499426226635));
#112 = CARTESIAN_POINT('',(-0.17070388366,-5.665030927052));
#113 = CARTESIAN_POINT('',(-0.173085156381,-5.832523585102));
#114 = CARTESIAN_POINT('',(-0.173085156381,-6.));
#115 = ( GEOMETRIC_REPRESENTATION_CONTEXT(2) 
PARAMETRIC_REPRESENTATION_CONTEXT() REPRESENTATION_CONTEXT('2D SPACE',''
  ) );
#116 = PCURVE('',#117,#122);
#117 = CYLINDRICAL_SURFACE('',#118,1.55);
#118 = AXIS2_PLACEMENT_3D('',#119,#120,#121);
#119 = CARTESIAN_POINT('',(1.95,0.,6.0000001));
#120 = DIRECTION('',(-1.,-0.,-0.));
#121 = DIRECTION('',(0.,1.,0.));
#122 = DEFINITIONAL_REPRESENTATION('',(#123),#138);
#123 = B_SPLINE_CURVE_WITH_KNOTS('',7,(#124,#125,#126,#127,#128,#129,
    #130,#131,#132,#133,#134,#135,#136,#137),.UNSPECIFIED.,.F.,.F.,(8,6,
    8),(0.,0.456147625747,1.),.UNSPECIFIED.);
#124 = CARTESIAN_POINT('',(-4.712388980385,-7.05));
#125 = CARTESIAN_POINT('',(-4.832807215652,-7.05));
#126 = CARTESIAN_POINT('',(-4.950986815767,-7.045483898036));
#127 = CARTESIAN_POINT('',(-5.066813932957,-7.036754807782));
#128 = CARTESIAN_POINT('',(-5.180025327967,-7.024756492795));
#129 = CARTESIAN_POINT('',(-5.290174260464,-7.010908583955));
#130 = CARTESIAN_POINT('',(-5.396521596665,-6.996632098896));
#131 = CARTESIAN_POINT('',(-5.618523293926,-6.966778846604));
#132 = CARTESIAN_POINT('',(-5.734752095485,-6.951114680887));
#133 = CARTESIAN_POINT('',(-5.847675030482,-6.937411840579));
#134 = CARTESIAN_POINT('',(-5.958173115937,-6.926598097437));
#135 = CARTESIAN_POINT('',(-6.067076508329,-6.91921402343));
#136 = CARTESIAN_POINT('',(-6.175136007245,-6.915523109214));
#137 = CARTESIAN_POINT('',(-6.28318530718,-6.915523109214));
#138 = ( GEOMETRIC_REPRESENTATION_CONTEXT(2) 
PARAMETRIC_REPRESENTATION_CONTEXT() REPRESENTATION_CONTEXT('2D SPACE',''
  ) );
#139 = ORIENTED_EDGE('',*,*,#140,.T.);
#140 = EDGE_CURVE('',#80,#141,#143,.T.);
#141 = VERTEX_POINT('',#142);
#142 = CARTESIAN_POINT('',(8.946367978124,0.981070843517,7.2000001));
#143 = SURFACE_CURVE('',#144,(#157,#173),.PCURVE_S1.);
#144 = B_SPLINE_CURVE_WITH_KNOTS('',6,(#145,#146,#147,#148,#149,#150,
    #151,#152,#153,#154,#155,#156),.UNSPECIFIED.,.F.,.F.,(7,5,7),(0.,
    0.74289681193,1.),.UNSPECIFIED.);
#145 = CARTESIAN_POINT('',(8.865523109214,1.55,6.0000001));
#146 = CARTESIAN_POINT('',(8.865523109214,1.55,6.16218208016));
#147 = CARTESIAN_POINT('',(8.869083675422,1.529636054276,6.324297260705)
  );
#148 = CARTESIAN_POINT('',(8.876197309299,1.488941396402,6.484489240074)
  );
#149 = CARTESIAN_POINT('',(8.886582460989,1.427492324229,6.640788703862)
  );
#150 = CARTESIAN_POINT('',(8.899624596801,1.344595980085,6.790691690386)
  );
#151 = CARTESIAN_POINT('',(8.919293382636,1.203143280676,6.979088997551)
  );
#152 = CARTESIAN_POINT('',(8.924538727384,1.164114853321,7.026339406406)
  );
#153 = CARTESIAN_POINT('',(8.929926255223,1.122404206024,7.072241458203)
  );
#154 = CARTESIAN_POINT('',(8.935402147152,1.077996349767,7.116617889765)
  );
#155 = CARTESIAN_POINT('',(8.940905375241,1.030884262013,7.15927474041)
  );
#156 = CARTESIAN_POINT('',(8.946368058603,0.981070109625,7.2000007));
#157 = PCURVE('',#32,#158);
#158 = DEFINITIONAL_REPRESENTATION('',(#159),#172);
#159 = B_SPLINE_CURVE_WITH_KNOTS('',6,(#160,#161,#162,#163,#164,#165,
    #166,#167,#168,#169,#170,#171),.UNSPECIFIED.,.F.,.F.,(7,5,7),(0.,
    0.74289681193,1.),.UNSPECIFIED.);
#160 = CARTESIAN_POINT('',(-0.173085156381,-6.));
#161 = CARTESIAN_POINT('',(-0.173085156381,-6.16218198016));
#162 = CARTESIAN_POINT('',(-0.170788164485,-6.324297160705));
#163 = CARTESIAN_POINT('',(-0.166197997666,-6.484489140074));
#164 = CARTESIAN_POINT('',(-0.159273550251,-6.640788603862));
#165 = CARTESIAN_POINT('',(-0.149951031367,-6.790691590386));
#166 = CARTESIAN_POINT('',(-0.134082852438,-6.979088897551));
#167 = CARTESIAN_POINT('',(-0.129707416865,-7.026339306406));
#168 = CARTESIAN_POINT('',(-0.125034498181,-7.072241358203));
#169 = CARTESIAN_POINT('',(-0.12006306122,-7.116617789765));
#170 = CARTESIAN_POINT('',(-0.114792923648,-7.15927464041));
#171 = CARTESIAN_POINT('',(-0.109224837017,-7.2000006));
#172 = ( GEOMETRIC_REPRESENTATION_CONTEXT(2) 
PARAMETRIC_REPRESENTATION_CONTEXT() REPRESENTATION_CONTEXT('2D SPACE',''
  ) );
#173 = PCURVE('',#117,#174);
#174 = DEFINITIONAL_REPRESENTATION('',(#175),#188);
#175 = B_SPLINE_CURVE_WITH_KNOTS('',6,(#176,#177,#178,#179,#180,#181,
    #182,#183,#184,#185,#186,#187),.UNSPECIFIED.,.F.,.F.,(7,5,7),(0.,
    0.74289681193,1.),.UNSPECIFIED.);
#176 = CARTESIAN_POINT('',(0.,-6.915523109214));
#177 = CARTESIAN_POINT('',(-0.104633535587,-6.915523109214));
#178 = CARTESIAN_POINT('',(-0.209225037857,-6.919083675422));
#179 = CARTESIAN_POINT('',(-0.314631716489,-6.926197309299));
#180 = CARTESIAN_POINT('',(-0.421660020158,-6.936582460989));
#181 = CARTESIAN_POINT('',(-0.53111121211,-6.949624596801));
#182 = CARTESIAN_POINT('',(-0.683104436556,-6.969293382636));
#183 = CARTESIAN_POINT('',(-0.72260046687,-6.974538727384));
#184 = CARTESIAN_POINT('',(-0.762547352137,-6.979926255223));
#185 = CARTESIAN_POINT('',(-0.802978166469,-6.985402147152));
#186 = CARTESIAN_POINT('',(-0.843928820982,-6.990905375241));
#187 = CARTESIAN_POINT('',(-0.885440593882,-6.996368058603));
#188 = ( GEOMETRIC_REPRESENTATION_CONTEXT(2) 
PARAMETRIC_REPRESENTATION_CONTEXT() REPRESENTATION_CONTEXT('2D SPACE',''
  ) );
#189 = ORIENTED_EDGE('',*,*,#190,.T.);
#190 = EDGE_CURVE('',#141,#191,#193,.T.);
#191 = VERTEX_POINT('',#192);
#192 = CARTESIAN_POINT('',(8.946367978124,-0.981070843517,7.2000001));
#193 = SURFACE_CURVE('',#194,(#199,#206),.PCURVE_S1.);
#194 = CIRCLE('',#195,9.);
#195 = AXIS2_PLACEMENT_3D('',#196,#197,#198);
#196 = CARTESIAN_POINT('',(0.,0.,7.2000001));
#197 = DIRECTION('',(0.,0.,1.));
#198 = DIRECTION('',(1.,0.,-0.));
#199 = PCURVE('',#32,#200);
#200 = DEFINITIONAL_REPRESENTATION('',(#201),#205);
#201 = LINE('',#202,#203);
#202 = CARTESIAN_POINT('',(-0.,-7.2));
#203 = VECTOR('',#204,1.);
#204 = DIRECTION('',(-1.,0.));
#205 = ( GEOMETRIC_REPRESENTATION_CONTEXT(2) 
PARAMETRIC_REPRESENTATION_CONTEXT() REPRESENTATION_CONTEXT('2D SPACE',''
  ) );
#206 = PCURVE('',#207,#212);
#207 = CONICAL_SURFACE('',#208,9.,0.784629524041);
#208 = AXIS2_PLACEMENT_3D('',#209,#210,#211);
#209 = CARTESIAN_POINT('',(0.,0.,7.2000001));
#210 = DIRECTION('',(0.,0.,1.));
#211 = DIRECTION('',(1.,0.,-0.));
#212 = DEFINITIONAL_REPRESENTATION('',(#213),#217);
#213 = LINE('',#214,#215);
#214 = CARTESIAN_POINT('',(0.,0.));
#215 = VECTOR('',#216,1.);
#216 = DIRECTION('',(1.,0.));
#217 = ( GEOMETRIC_REPRESENTATION_CONTEXT(2) 
PARAMETRIC_REPRESENTATION_CONTEXT() REPRESENTATION_CONTEXT('2D SPACE',''
  ) );
#218 = ORIENTED_EDGE('',*,*,#219,.T.);
#219 = EDGE_CURVE('',#191,#24,#220,.T.);
#220 = SURFACE_CURVE('',#221,(#248,#278),.PCURVE_S1.);
#221 = B_SPLINE_CURVE_WITH_KNOTS('',7,(#222,#223,#224,#225,#226,#227,
    #228,#229,#230,#231,#232,#233,#234,#235,#236,#237,#238,#239,#240,
    #241,#242,#243,#244,#245,#246,#247),.UNSPECIFIED.,.F.,.F.,(8,6,6,6,8
    ),(0.,0.170168155766,0.378161971305,0.691366350243,1.),
  .UNSPECIFIED.);
#222 = CARTESIAN_POINT('',(8.946368058603,-0.981070109625,7.2000007));
#223 = CARTESIAN_POINT('',(8.938170615852,-1.055822504255,7.138886280562
    ));
#224 = CARTESIAN_POINT('',(8.929887150354,-1.124632440108,7.07356626281)
  );
#225 = CARTESIAN_POINT('',(8.921725014269,-1.18751550428,7.004682839519)
  );
#226 = CARTESIAN_POINT('',(8.913861281087,-1.244522349726,6.932794656116
    ));
#227 = CARTESIAN_POINT('',(8.906444131209,-1.295726410564,6.858388743316
    ));
#228 = CARTESIAN_POINT('',(8.899594237515,-1.341211617371,6.78189244975)
  );
#229 = CARTESIAN_POINT('',(8.88584255169,-1.429766290839,6.608094117289)
  );
#230 = CARTESIAN_POINT('',(8.879264941022,-1.470072137132,6.509906887751
    ));
#231 = CARTESIAN_POINT('',(8.873844524635,-1.502137083822,6.409770244265
    ));
#232 = CARTESIAN_POINT('',(8.869702905107,-1.526091623123,6.308237818782
    ));
#233 = CARTESIAN_POINT('',(8.866916858208,-1.542029515805,6.205798499071
    ));
#234 = CARTESIAN_POINT('',(8.865523109214,-1.55,6.102904610862));
#235 = CARTESIAN_POINT('',(8.865523109214,-1.55,5.84504288009));
#236 = CARTESIAN_POINT('',(8.868682902633,-1.531926874351,5.690157920293
    ));
#237 = CARTESIAN_POINT('',(8.874997572771,-1.495809302973,5.536752225616
    ));
#238 = CARTESIAN_POINT('',(8.884281213773,-1.441340591009,5.386373173367
    ));
#239 = CARTESIAN_POINT('',(8.896145152839,-1.368022891491,5.2408946694)
  );
#240 = CARTESIAN_POINT('',(8.90991290588,-1.275283736339,5.102699471405)
  );
#241 = CARTESIAN_POINT('',(8.939040311666,-1.051703969781,4.849098006446
    ));
#242 = CARTESIAN_POINT('',(8.954722344049,-0.918762591965,4.730352339962
    ));
#243 = CARTESIAN_POINT('',(8.970404157742,-0.764393021903,4.625670632644
    ));
#244 = CARTESIAN_POINT('',(8.984329293802,-0.591019198789,4.540997045057
    ));
#245 = CARTESIAN_POINT('',(8.994627716662,-0.402463925653,4.481192688558
    ));
#246 = CARTESIAN_POINT('',(9.,-0.203572861894,4.4500001));
#247 = CARTESIAN_POINT('',(9.,-1.33226762955E-15,4.4500001));
#248 = PCURVE('',#32,#249);
#249 = DEFINITIONAL_REPRESENTATION('',(#250),#277);
#250 = B_SPLINE_CURVE_WITH_KNOTS('',7,(#251,#252,#253,#254,#255,#256,
    #257,#258,#259,#260,#261,#262,#263,#264,#265,#266,#267,#268,#269,
    #270,#271,#272,#273,#274,#275,#276),.UNSPECIFIED.,.F.,.F.,(8,6,6,6,8
    ),(0.,0.170168155766,0.378161971305,0.691366350243,1.),
  .UNSPECIFIED.);
#251 = CARTESIAN_POINT('',(-6.173960470163,-7.2000006));
#252 = CARTESIAN_POINT('',(-6.165604856562,-7.138886180562));
#253 = CARTESIAN_POINT('',(-6.157904534333,-7.07356616281));
#254 = CARTESIAN_POINT('',(-6.150859360395,-7.004682739519));
#255 = CARTESIAN_POINT('',(-6.144465582245,-6.932794556116));
#256 = CARTESIAN_POINT('',(-6.138717006047,-6.858388643316));
#257 = CARTESIAN_POINT('',(-6.133606164728,-6.78189234975));
#258 = CARTESIAN_POINT('',(-6.123648824204,-6.608094017289));
#259 = CARTESIAN_POINT('',(-6.119111274961,-6.509906787751));
#260 = CARTESIAN_POINT('',(-6.115498039781,-6.409770144265));
#261 = CARTESIAN_POINT('',(-6.112796938956,-6.308237718782));
#262 = CARTESIAN_POINT('',(-6.110999184131,-6.205798399071));
#263 = CARTESIAN_POINT('',(-6.110100150798,-6.102904510862));
#264 = CARTESIAN_POINT('',(-6.110100150798,-5.84504278009));
#265 = CARTESIAN_POINT('',(-6.112138736081,-5.690157820293));
#266 = CARTESIAN_POINT('',(-6.116212672603,-5.536752125616));
#267 = CARTESIAN_POINT('',(-6.12235197131,-5.386373073367));
#268 = CARTESIAN_POINT('',(-6.130603698318,-5.2408945694));
#269 = CARTESIAN_POINT('',(-6.141019324099,-5.102699371405));
#270 = CARTESIAN_POINT('',(-6.166071446993,-4.849097906446));
#271 = CARTESIAN_POINT('',(-6.180944014465,-4.730352239962));
#272 = CARTESIAN_POINT('',(-6.198180797202,-4.625670532644));
#273 = CARTESIAN_POINT('',(-6.217497705643,-4.540996945057));
#274 = CARTESIAN_POINT('',(-6.238467071092,-4.481192588558));
#275 = CARTESIAN_POINT('',(-6.260566100302,-4.45));
#276 = CARTESIAN_POINT('',(-6.28318530718,-4.45));
#277 = ( GEOMETRIC_REPRESENTATION_CONTEXT(2) 
PARAMETRIC_REPRESENTATION_CONTEXT() REPRESENTATION_CONTEXT('2D SPACE',''
  ) );
#278 = PCURVE('',#117,#279);
#279 = DEFINITIONAL_REPRESENTATION('',(#280),#307);
#280 = B_SPLINE_CURVE_WITH_KNOTS('',7,(#281,#282,#283,#284,#285,#286,
    #287,#288,#289,#290,#291,#292,#293,#294,#295,#296,#297,#298,#299,
    #300,#301,#302,#303,#304,#305,#306),.UNSPECIFIED.,.F.,.F.,(8,6,6,6,8
    ),(0.,0.170168155766,0.378161971305,0.691366350243,1.),
  .UNSPECIFIED.);
#281 = CARTESIAN_POINT('',(-2.256152059707,-6.996368058603));
#282 = CARTESIAN_POINT('',(-2.318445690752,-6.988170615852));
#283 = CARTESIAN_POINT('',(-2.379488988744,-6.979887150354));
#284 = CARTESIAN_POINT('',(-2.439420584921,-6.971725014269));
#285 = CARTESIAN_POINT('',(-2.498363555163,-6.963861281087));
#286 = CARTESIAN_POINT('',(-2.556429973176,-6.956444131209));
#287 = CARTESIAN_POINT('',(-2.613725463672,-6.949594237515));
#288 = CARTESIAN_POINT('',(-2.739569611141,-6.93584255169));
#289 = CARTESIAN_POINT('',(-2.807817740241,-6.929264941022));
#290 = CARTESIAN_POINT('',(-2.875312981688,-6.923844524635));
#291 = CARTESIAN_POINT('',(-2.942251561029,-6.919702905107));
#292 = CARTESIAN_POINT('',(-3.008819770099,-6.916916858208));
#293 = CARTESIAN_POINT('',(-3.075202646582,-6.915523109214));
#294 = CARTESIAN_POINT('',(-3.241565053532,-6.915523109214));
#295 = CARTESIAN_POINT('',(-3.341490748902,-6.918682902633));
#296 = CARTESIAN_POINT('',(-3.442094513817,-6.924997572771));
#297 = CARTESIAN_POINT('',(-3.544001795783,-6.934281213773));
#298 = CARTESIAN_POINT('',(-3.647851556694,-6.946145152839));
#299 = CARTESIAN_POINT('',(-3.754297588303,-6.95991290588));
#300 = CARTESIAN_POINT('',(-3.972417084181,-6.989040311666));
#301 = CARTESIAN_POINT('',(-4.086603072988,-7.004722344049));
#302 = CARTESIAN_POINT('',(-4.205196892242,-7.020404157742));
#303 = CARTESIAN_POINT('',(-4.327385644287,-7.034329293802));
#304 = CARTESIAN_POINT('',(-4.452734936842,-7.044627716662));
#305 = CARTESIAN_POINT('',(-4.58105165013,-7.05));
#306 = CARTESIAN_POINT('',(-4.712388980385,-7.05));
#307 = ( GEOMETRIC_REPRESENTATION_CONTEXT(2) 
PARAMETRIC_REPRESENTATION_CONTEXT() REPRESENTATION_CONTEXT('2D SPACE',''
  ) );
#308 = ADVANCED_FACE('',(#309),#117,.F.);
#309 = FACE_BOUND('',#310,.T.);
#310 = EDGE_LOOP('',(#311,#344,#365,#366,#440,#512,#513,#514));
#311 = ORIENTED_EDGE('',*,*,#312,.T.);
#312 = EDGE_CURVE('',#313,#313,#315,.T.);
#313 = VERTEX_POINT('',#314);
#314 = CARTESIAN_POINT('',(2.45,1.55,6.0000001));
#315 = SURFACE_CURVE('',#316,(#321,#328),.PCURVE_S1.);
#316 = CIRCLE('',#317,1.55);
#317 = AXIS2_PLACEMENT_3D('',#318,#319,#320);
#318 = CARTESIAN_POINT('',(2.45,0.,6.0000001));
#319 = DIRECTION('',(-1.,0.,0.));
#320 = DIRECTION('',(0.,1.,0.));
#321 = PCURVE('',#117,#322);
#322 = DEFINITIONAL_REPRESENTATION('',(#323),#327);
#323 = LINE('',#324,#325);
#324 = CARTESIAN_POINT('',(-6.28318530718,-0.5));
#325 = VECTOR('',#326,1.);
#326 = DIRECTION('',(1.,-0.));
#327 = ( GEOMETRIC_REPRESENTATION_CONTEXT(2) 
PARAMETRIC_REPRESENTATION_CONTEXT() REPRESENTATION_CONTEXT('2D SPACE',''
  ) );
#328 = PCURVE('',#329,#334);
#329 = PLANE('',#330);
#330 = AXIS2_PLACEMENT_3D('',#331,#332,#333);
#331 = CARTESIAN_POINT('',(2.45,-10.,-1.9999999));
#332 = DIRECTION('',(1.,0.,0.));
#333 = DIRECTION('',(0.,0.,1.));
#334 = DEFINITIONAL_REPRESENTATION('',(#335),#343);
#335 = ( BOUNDED_CURVE() B_SPLINE_CURVE(2,(#336,#337,#338,#339,#340,#341
,#342),.UNSPECIFIED.,.T.,.F.) B_SPLINE_CURVE_WITH_KNOTS((1,2,2,2,2,1),(
    -2.094395102393,0.,2.094395102393,4.188790204786,6.28318530718,
8.377580409573),.UNSPECIFIED.) CURVE() GEOMETRIC_REPRESENTATION_ITEM() 
RATIONAL_B_SPLINE_CURVE((1.,0.5,1.,0.5,1.,0.5,1.)) REPRESENTATION_ITEM(
  '') );
#336 = CARTESIAN_POINT('',(8.,-11.55));
#337 = CARTESIAN_POINT('',(5.315321248268,-11.55));
#338 = CARTESIAN_POINT('',(6.657660624134,-9.225));
#339 = CARTESIAN_POINT('',(8.,-6.9));
#340 = CARTESIAN_POINT('',(9.342339375866,-9.225));
#341 = CARTESIAN_POINT('',(10.684678751732,-11.55));
#342 = CARTESIAN_POINT('',(8.,-11.55));
#343 = ( GEOMETRIC_REPRESENTATION_CONTEXT(2) 
PARAMETRIC_REPRESENTATION_CONTEXT() REPRESENTATION_CONTEXT('2D SPACE',''
  ) );
#344 = ORIENTED_EDGE('',*,*,#345,.T.);
#345 = EDGE_CURVE('',#313,#80,#346,.T.);
#346 = SEAM_CURVE('',#347,(#351,#358),.PCURVE_S1.);
#347 = LINE('',#348,#349);
#348 = CARTESIAN_POINT('',(1.95,1.55,6.0000001));
#349 = VECTOR('',#350,1.);
#350 = DIRECTION('',(1.,0.,0.));
#351 = PCURVE('',#117,#352);
#352 = DEFINITIONAL_REPRESENTATION('',(#353),#357);
#353 = LINE('',#354,#355);
#354 = CARTESIAN_POINT('',(-6.28318530718,0.));
#355 = VECTOR('',#356,1.);
#356 = DIRECTION('',(-0.,-1.));
#357 = ( GEOMETRIC_REPRESENTATION_CONTEXT(2) 
PARAMETRIC_REPRESENTATION_CONTEXT() REPRESENTATION_CONTEXT('2D SPACE',''
  ) );
#358 = PCURVE('',#117,#359);
#359 = DEFINITIONAL_REPRESENTATION('',(#360),#364);
#360 = LINE('',#361,#362);
#361 = CARTESIAN_POINT('',(-0.,0.));
#362 = VECTOR('',#363,1.);
#363 = DIRECTION('',(-0.,-1.));
#364 = ( GEOMETRIC_REPRESENTATION_CONTEXT(2) 
PARAMETRIC_REPRESENTATION_CONTEXT() REPRESENTATION_CONTEXT('2D SPACE',''
  ) );
#365 = ORIENTED_EDGE('',*,*,#140,.T.);
#366 = ORIENTED_EDGE('',*,*,#367,.T.);
#367 = EDGE_CURVE('',#141,#368,#370,.T.);
#368 = VERTEX_POINT('',#369);
#369 = CARTESIAN_POINT('',(9.349462365591,-2.289957831954E-15,7.5500001)
  );
#370 = SURFACE_CURVE('',#371,(#392,#416),.PCURVE_S1.);
#371 = B_SPLINE_CURVE_WITH_KNOTS('',7,(#372,#373,#374,#375,#376,#377,
    #378,#379,#380,#381,#382,#383,#384,#385,#386,#387,#388,#389,#390,
    #391),.UNSPECIFIED.,.F.,.F.,(8,6,6,8),(0.,0.579958038791,
    0.741163912109,1.),.UNSPECIFIED.);
#372 = CARTESIAN_POINT('',(8.946367978124,0.981070843517,7.2000001));
#373 = CARTESIAN_POINT('',(8.996666922702,0.927035817032,7.244176924178)
  );
#374 = CARTESIAN_POINT('',(9.045581718492,0.86888665357,7.286981479367)
  );
#375 = CARTESIAN_POINT('',(9.092936997174,0.806091532035,7.328280945276)
  );
#376 = CARTESIAN_POINT('',(9.138296110368,0.738123651539,7.367713894513)
  );
#377 = CARTESIAN_POINT('',(9.180945750889,0.664473524522,7.404684363218)
  );
#378 = CARTESIAN_POINT('',(9.219915013155,0.584701072611,7.438382891031)
  );
#379 = CARTESIAN_POINT('',(9.263333501669,0.47431914201,7.475860596793)
  );
#380 = CARTESIAN_POINT('',(9.272385158827,0.449816120211,7.483669017464)
  );
#381 = CARTESIAN_POINT('',(9.281014531608,0.424817180319,7.491108932903)
  );
#382 = CARTESIAN_POINT('',(9.28918820493,0.399325933182,7.498152279048)
  );
#383 = CARTESIAN_POINT('',(9.296870702822,0.373352033866,7.504769239014)
  );
#384 = CARTESIAN_POINT('',(9.304025581817,0.346912243383,7.51092916709)
  );
#385 = CARTESIAN_POINT('',(9.32119910267,0.27687109683,7.52570916949));
#386 = CARTESIAN_POINT('',(9.330333419183,0.232551524643,7.533564629803)
  );
#387 = CARTESIAN_POINT('',(9.337858205878,0.187209828443,7.540031975303)
  );
#388 = CARTESIAN_POINT('',(9.343625981621,0.141026690417,7.544987105472)
  );
#389 = CARTESIAN_POINT('',(9.347517664431,9.423157817395E-02,
    7.548329748004));
#390 = CARTESIAN_POINT('',(9.349462365591,4.710816320749E-02,7.5500001)
  );
#391 = CARTESIAN_POINT('',(9.349462365591,0.,7.5500001));
#392 = PCURVE('',#117,#393);
#393 = DEFINITIONAL_REPRESENTATION('',(#394),#415);
#394 = B_SPLINE_CURVE_WITH_KNOTS('',7,(#395,#396,#397,#398,#399,#400,
    #401,#402,#403,#404,#405,#406,#407,#408,#409,#410,#411,#412,#413,
    #414),.UNSPECIFIED.,.F.,.F.,(8,6,6,8),(0.,0.579958038791,
    0.741163912109,1.),.UNSPECIFIED.);
#395 = CARTESIAN_POINT('',(-0.885439982306,-6.996367978124));
#396 = CARTESIAN_POINT('',(-0.930469171043,-7.046666922702));
#397 = CARTESIAN_POINT('',(-0.976992836241,-7.095581718492));
#398 = CARTESIAN_POINT('',(-1.02537206161,-7.142936997174));
#399 = CARTESIAN_POINT('',(-1.075914179221,-7.188296110368));
#400 = CARTESIAN_POINT('',(-1.128908676984,-7.230945750889));
#401 = CARTESIAN_POINT('',(-1.184632209885,-7.269915013155));
#402 = CARTESIAN_POINT('',(-1.25983917104,-7.313333501669));
#403 = CARTESIAN_POINT('',(-1.276427925106,-7.322385158827));
#404 = CARTESIAN_POINT('',(-1.293250324733,-7.331014531608));
#405 = CARTESIAN_POINT('',(-1.310306444314,-7.33918820493));
#406 = CARTESIAN_POINT('',(-1.32759326312,-7.346870702822));
#407 = CARTESIAN_POINT('',(-1.345104177579,-7.354025581817));
#408 = CARTESIAN_POINT('',(-1.39128714033,-7.37119910267));
#409 = CARTESIAN_POINT('',(-1.420310695903,-7.380333419183));
#410 = CARTESIAN_POINT('',(-1.449832268717,-7.387858205878));
#411 = CARTESIAN_POINT('',(-1.479765486499,-7.393625981621));
#412 = CARTESIAN_POINT('',(-1.510001770705,-7.397517664431));
#413 = CARTESIAN_POINT('',(-1.540403963435,-7.399462365591));
#414 = CARTESIAN_POINT('',(-1.570796326795,-7.399462365591));
#415 = ( GEOMETRIC_REPRESENTATION_CONTEXT(2) 
PARAMETRIC_REPRESENTATION_CONTEXT() REPRESENTATION_CONTEXT('2D SPACE',''
  ) );
#416 = PCURVE('',#207,#417);
#417 = DEFINITIONAL_REPRESENTATION('',(#418),#439);
#418 = B_SPLINE_CURVE_WITH_KNOTS('',7,(#419,#420,#421,#422,#423,#424,
    #425,#426,#427,#428,#429,#430,#431,#432,#433,#434,#435,#436,#437,
    #438),.UNSPECIFIED.,.F.,.F.,(8,6,6,8),(0.,0.579958038791,
    0.741163912109,1.),.UNSPECIFIED.);
#419 = CARTESIAN_POINT('',(0.109224919049,6.222707298414E-15));
#420 = CARTESIAN_POINT('',(0.102647584992,4.417682417786E-02));
#421 = CARTESIAN_POINT('',(9.570783128952E-02,8.69813793669E-02));
#422 = CARTESIAN_POINT('',(8.835182097098E-02,0.128280845276));
#423 = CARTESIAN_POINT('',(8.052971261149E-02,0.167713794513));
#424 = CARTESIAN_POINT('',(7.219422322492E-02,0.204684263218));
#425 = CARTESIAN_POINT('',(6.33025405564E-02,0.238382791031));
#426 = CARTESIAN_POINT('',(5.115693319266E-02,0.275860496793));
#427 = CARTESIAN_POINT('',(4.846961915956E-02,0.283668917464));
#428 = CARTESIAN_POINT('',(4.573646312824E-02,0.291108832903));
#429 = CARTESIAN_POINT('',(4.295769843733E-02,0.298152179048));
#430 = CARTESIAN_POINT('',(4.013412935552E-02,0.304769139014));
#431 = CARTESIAN_POINT('',(3.726722649328E-02,0.31092906709));
#432 = CARTESIAN_POINT('',(2.969005951207E-02,0.32570906949));
#433 = CARTESIAN_POINT('',(2.491251884624E-02,0.333564529803));
#434 = CARTESIAN_POINT('',(2.003953879972E-02,0.340031875303));
#435 = CARTESIAN_POINT('',(1.508792158372E-02,0.344987005472));
#436 = CARTESIAN_POINT('',(1.007882240423E-02,0.348329648004));
#437 = CARTESIAN_POINT('',(5.038595949738E-03,0.35));
#438 = CARTESIAN_POINT('',(0.,0.35));
#439 = ( GEOMETRIC_REPRESENTATION_CONTEXT(2) 
PARAMETRIC_REPRESENTATION_CONTEXT() REPRESENTATION_CONTEXT('2D SPACE',''
  ) );
#440 = ORIENTED_EDGE('',*,*,#441,.T.);
#441 = EDGE_CURVE('',#368,#191,#442,.T.);
#442 = SURFACE_CURVE('',#443,(#464,#488),.PCURVE_S1.);
#443 = B_SPLINE_CURVE_WITH_KNOTS('',7,(#444,#445,#446,#447,#448,#449,
    #450,#451,#452,#453,#454,#455,#456,#457,#458,#459,#460,#461,#462,
    #463),.UNSPECIFIED.,.F.,.F.,(8,6,6,8),(0.,0.256301986408,
    0.419297950871,1.),.UNSPECIFIED.);
#444 = CARTESIAN_POINT('',(9.349462365591,1.110223024625E-16,7.5500001)
  );
#445 = CARTESIAN_POINT('',(9.349462365591,-4.665131046019E-02,7.5500001)
  );
#446 = CARTESIAN_POINT('',(9.347555196303,-9.331384796074E-02,
    7.548361985216));
#447 = CARTESIAN_POINT('',(9.343739216653,-0.139656233217,7.545084364841
    ));
#448 = CARTESIAN_POINT('',(9.338082515813,-0.185404487146,7.540224680806
    ));
#449 = CARTESIAN_POINT('',(9.330699410725,-0.23033557921,7.533879187836)
  );
#450 = CARTESIAN_POINT('',(9.321732156216,-0.274271711064,7.526167586472
    ));
#451 = CARTESIAN_POINT('',(9.30472759082,-0.344296420069,7.511533534868)
  );
#452 = CARTESIAN_POINT('',(9.297537867801,-0.371068780698,7.505343836365
    ));
#453 = CARTESIAN_POINT('',(9.289806219613,-0.397366067822,7.498684777359
    ));
#454 = CARTESIAN_POINT('',(9.281570370202,-0.423170545595,7.491588081245
    ));
#455 = CARTESIAN_POINT('',(9.272867077599,-0.448471964503,7.4840846433)
  );
#456 = CARTESIAN_POINT('',(9.263730965049,-0.47326643398,7.476203542984)
  );
#457 = CARTESIAN_POINT('',(9.22021391361,-0.584088672859,7.438641361303)
  );
#458 = CARTESIAN_POINT('',(9.181218398187,-0.664002668392,7.40492070333)
  );
#459 = CARTESIAN_POINT('',(9.138527861994,-0.737776384042,7.367915368127
    ));
#460 = CARTESIAN_POINT('',(9.093118329641,-0.805851024307,7.328439088233
    ));
#461 = CARTESIAN_POINT('',(9.045706683721,-0.868738038609,7.287090832802
    ));
#462 = CARTESIAN_POINT('',(8.996731398596,-0.926966552027,7.244233552408
    ));
#463 = CARTESIAN_POINT('',(8.946367978124,-0.981070843517,7.2000001));
#464 = PCURVE('',#117,#465);
#465 = DEFINITIONAL_REPRESENTATION('',(#466),#487);
#466 = B_SPLINE_CURVE_WITH_KNOTS('',7,(#467,#468,#469,#470,#471,#472,
    #473,#474,#475,#476,#477,#478,#479,#480,#481,#482,#483,#484,#485,
    #486),.UNSPECIFIED.,.F.,.F.,(8,6,6,8),(0.,0.256301986408,
    0.419297950871,1.),.UNSPECIFIED.);
#467 = CARTESIAN_POINT('',(-1.570796326795,-7.399462365591));
#468 = CARTESIAN_POINT('',(-1.600893946447,-7.399462365591));
#469 = CARTESIAN_POINT('',(-1.630998798747,-7.397555196303));
#470 = CARTESIAN_POINT('',(-1.660941679957,-7.393739216653));
#471 = CARTESIAN_POINT('',(-1.690590326215,-7.388082515813));
#472 = CARTESIAN_POINT('',(-1.719839299817,-7.380699410725));
#473 = CARTESIAN_POINT('',(-1.748603506324,-7.371732156216));
#474 = CARTESIAN_POINT('',(-1.794756738584,-7.35472759082));
#475 = CARTESIAN_POINT('',(-1.812480857824,-7.347537867801));
#476 = CARTESIAN_POINT('',(-1.829976367449,-7.339806219613));
#477 = CARTESIAN_POINT('',(-1.847236231055,-7.331570370202));
#478 = CARTESIAN_POINT('',(-1.864257188759,-7.322867077599));
#479 = CARTESIAN_POINT('',(-1.881039237337,-7.313730965049));
#480 = CARTESIAN_POINT('',(-1.95653271928,-7.27021391361));
#481 = CARTESIAN_POINT('',(-2.012345187848,-7.231218398187));
#482 = CARTESIAN_POINT('',(-2.065420239159,-7.188527861994));
#483 = CARTESIAN_POINT('',(-2.116035308493,-7.143118329641));
#484 = CARTESIAN_POINT('',(-2.164480932822,-7.095706683721));
#485 = CARTESIAN_POINT('',(-2.211065761709,-7.046731398596));
#486 = CARTESIAN_POINT('',(-2.256152671284,-6.996367978124));
#487 = ( GEOMETRIC_REPRESENTATION_CONTEXT(2) 
PARAMETRIC_REPRESENTATION_CONTEXT() REPRESENTATION_CONTEXT('2D SPACE',''
  ) );
#488 = PCURVE('',#207,#489);
#489 = DEFINITIONAL_REPRESENTATION('',(#490),#511);
#490 = B_SPLINE_CURVE_WITH_KNOTS('',7,(#491,#492,#493,#494,#495,#496,
    #497,#498,#499,#500,#501,#502,#503,#504,#505,#506,#507,#508,#509,
    #510),.UNSPECIFIED.,.F.,.F.,(8,6,6,8),(0.,0.256301986408,
    0.419297950871,1.),.UNSPECIFIED.);
#491 = CARTESIAN_POINT('',(6.28318530718,0.35));
#492 = CARTESIAN_POINT('',(6.278195575296,0.35));
#493 = CARTESIAN_POINT('',(6.273204643393,0.348361885216));
#494 = CARTESIAN_POINT('',(6.268244081768,0.345084264841));
#495 = CARTESIAN_POINT('',(6.263339326579,0.340224580806));
#496 = CARTESIAN_POINT('',(6.258510930492,0.333879087836));
#497 = CARTESIAN_POINT('',(6.253775433309,0.326167486472));
#498 = CARTESIAN_POINT('',(6.246201657777,0.311533434868));
#499 = CARTESIAN_POINT('',(6.24329929407,0.305343736365));
#500 = CARTESIAN_POINT('',(6.240441124094,0.298684677359));
#501 = CARTESIAN_POINT('',(6.237628706796,0.291587981245));
#502 = CARTESIAN_POINT('',(6.234862898928,0.2840845433));
#503 = CARTESIAN_POINT('',(6.232143956542,0.276203442984));
#504 = CARTESIAN_POINT('',(6.219951022004,0.238641261303));
#505 = CARTESIAN_POINT('',(6.211044373011,0.20492060333));
#506 = CARTESIAN_POINT('',(6.202695560081,0.167915268127));
#507 = CARTESIAN_POINT('',(6.194861659125,0.128438988233));
#508 = CARTESIAN_POINT('',(6.187495210872,8.709073280182E-02));
#509 = CARTESIAN_POINT('',(6.180546153369,4.423345240845E-02));
#510 = CARTESIAN_POINT('',(6.173960388131,0.));
#511 = ( GEOMETRIC_REPRESENTATION_CONTEXT(2) 
PARAMETRIC_REPRESENTATION_CONTEXT() REPRESENTATION_CONTEXT('2D SPACE',''
  ) );
#512 = ORIENTED_EDGE('',*,*,#219,.T.);
#513 = ORIENTED_EDGE('',*,*,#79,.T.);
#514 = ORIENTED_EDGE('',*,*,#345,.F.);
#515 = ADVANCED_FACE('',(#516),#207,.T.);
#516 = FACE_BOUND('',#517,.T.);
#517 = EDGE_LOOP('',(#518,#541,#568,#569,#570,#571));
#518 = ORIENTED_EDGE('',*,*,#519,.T.);
#519 = EDGE_CURVE('',#368,#520,#522,.T.);
#520 = VERTEX_POINT('',#521);
#521 = CARTESIAN_POINT('',(15.490015360983,-3.793959546114E-15,
    13.7000001));
#522 = SEAM_CURVE('',#523,(#527,#534),.PCURVE_S1.);
#523 = LINE('',#524,#525);
#524 = CARTESIAN_POINT('',(9.,-2.204364238465E-15,7.2000001));
#525 = VECTOR('',#526,1.);
#526 = DIRECTION('',(0.706563062257,-1.730580385178E-16,0.707650082353)
  );
#527 = PCURVE('',#207,#528);
#528 = DEFINITIONAL_REPRESENTATION('',(#529),#533);
#529 = LINE('',#530,#531);
#530 = CARTESIAN_POINT('',(6.28318530718,-0.));
#531 = VECTOR('',#532,1.);
#532 = DIRECTION('',(0.,1.));
#533 = ( GEOMETRIC_REPRESENTATION_CONTEXT(2) 
PARAMETRIC_REPRESENTATION_CONTEXT() REPRESENTATION_CONTEXT('2D SPACE',''
  ) );
#534 = PCURVE('',#207,#535);
#535 = DEFINITIONAL_REPRESENTATION('',(#536),#540);
#536 = LINE('',#537,#538);
#537 = CARTESIAN_POINT('',(0.,-0.));
#538 = VECTOR('',#539,1.);
#539 = DIRECTION('',(0.,1.));
#540 = ( GEOMETRIC_REPRESENTATION_CONTEXT(2) 
PARAMETRIC_REPRESENTATION_CONTEXT() REPRESENTATION_CONTEXT('2D SPACE',''
  ) );
#541 = ORIENTED_EDGE('',*,*,#542,.F.);
#542 = EDGE_CURVE('',#520,#520,#543,.T.);
#543 = SURFACE_CURVE('',#544,(#549,#556),.PCURVE_S1.);
#544 = CIRCLE('',#545,15.490015360983);
#545 = AXIS2_PLACEMENT_3D('',#546,#547,#548);
#546 = CARTESIAN_POINT('',(0.,0.,13.7000001));
#547 = DIRECTION('',(0.,0.,1.));
#548 = DIRECTION('',(1.,0.,-0.));
#549 = PCURVE('',#207,#550);
#550 = DEFINITIONAL_REPRESENTATION('',(#551),#555);
#551 = LINE('',#552,#553);
#552 = CARTESIAN_POINT('',(0.,6.5));
#553 = VECTOR('',#554,1.);
#554 = DIRECTION('',(1.,0.));
#555 = ( GEOMETRIC_REPRESENTATION_CONTEXT(2) 
PARAMETRIC_REPRESENTATION_CONTEXT() REPRESENTATION_CONTEXT('2D SPACE',''
  ) );
#556 = PCURVE('',#557,#562);
#557 = PLANE('',#558);
#558 = AXIS2_PLACEMENT_3D('',#559,#560,#561);
#559 = CARTESIAN_POINT('',(-7.057755522784E-16,7.788169249974E-16,
    13.7000001));
#560 = DIRECTION('',(0.,0.,1.));
#561 = DIRECTION('',(1.,0.,-0.));
#562 = DEFINITIONAL_REPRESENTATION('',(#563),#567);
#563 = CIRCLE('',#564,15.490015360983);
#564 = AXIS2_PLACEMENT_2D('',#565,#566);
#565 = CARTESIAN_POINT('',(7.057755522784E-16,-7.788169249974E-16));
#566 = DIRECTION('',(1.,0.));
#567 = ( GEOMETRIC_REPRESENTATION_CONTEXT(2) 
PARAMETRIC_REPRESENTATION_CONTEXT() REPRESENTATION_CONTEXT('2D SPACE',''
  ) );
#568 = ORIENTED_EDGE('',*,*,#519,.F.);
#569 = ORIENTED_EDGE('',*,*,#367,.F.);
#570 = ORIENTED_EDGE('',*,*,#190,.T.);
#571 = ORIENTED_EDGE('',*,*,#441,.F.);
#572 = ADVANCED_FACE('',(#573,#576),#66,.F.);
#573 = FACE_BOUND('',#574,.F.);
#574 = EDGE_LOOP('',(#575));
#575 = ORIENTED_EDGE('',*,*,#51,.T.);
#576 = FACE_BOUND('',#577,.F.);
#577 = EDGE_LOOP('',(#578));
#578 = ORIENTED_EDGE('',*,*,#579,.F.);
#579 = EDGE_CURVE('',#580,#580,#582,.T.);
#580 = VERTEX_POINT('',#581);
#581 = CARTESIAN_POINT('',(3.665,-8.97666103775E-16,1.000000002804E-07)
  );
#582 = SURFACE_CURVE('',#583,(#588,#595),.PCURVE_S1.);
#583 = CIRCLE('',#584,3.665);
#584 = AXIS2_PLACEMENT_3D('',#585,#586,#587);
#585 = CARTESIAN_POINT('',(0.,0.,1.000000002804E-07));
#586 = DIRECTION('',(0.,0.,1.));
#587 = DIRECTION('',(1.,0.,-0.));
#588 = PCURVE('',#66,#589);
#589 = DEFINITIONAL_REPRESENTATION('',(#590),#594);
#590 = CIRCLE('',#591,3.665);
#591 = AXIS2_PLACEMENT_2D('',#592,#593);
#592 = CARTESIAN_POINT('',(3.038755850088E-16,-2.403571302733E-16));
#593 = DIRECTION('',(1.,0.));
#594 = ( GEOMETRIC_REPRESENTATION_CONTEXT(2) 
PARAMETRIC_REPRESENTATION_CONTEXT() REPRESENTATION_CONTEXT('2D SPACE',''
  ) );
#595 = PCURVE('',#596,#601);
#596 = CONICAL_SURFACE('',#597,3.675,0.785398163397);
#597 = AXIS2_PLACEMENT_3D('',#598,#599,#600);
#598 = CARTESIAN_POINT('',(0.,0.,-9.9999E-03));
#599 = DIRECTION('',(-0.,-0.,-1.));
#600 = DIRECTION('',(1.,0.,-0.));
#601 = DEFINITIONAL_REPRESENTATION('',(#602),#606);
#602 = LINE('',#603,#604);
#603 = CARTESIAN_POINT('',(-0.,-1.E-02));
#604 = VECTOR('',#605,1.);
#605 = DIRECTION('',(-1.,-0.));
#606 = ( GEOMETRIC_REPRESENTATION_CONTEXT(2) 
PARAMETRIC_REPRESENTATION_CONTEXT() REPRESENTATION_CONTEXT('2D SPACE',''
  ) );
#607 = ADVANCED_FACE('',(#608,#771),#329,.F.);
#608 = FACE_BOUND('',#609,.F.);
#609 = EDGE_LOOP('',(#610,#640,#668,#691,#718,#746));
#610 = ORIENTED_EDGE('',*,*,#611,.F.);
#611 = EDGE_CURVE('',#612,#614,#616,.T.);
#612 = VERTEX_POINT('',#613);
#613 = CARTESIAN_POINT('',(2.45,1.858258593415,14.6000001));
#614 = VERTEX_POINT('',#615);
#615 = CARTESIAN_POINT('',(2.45,1.858258593415,0.5900001));
#616 = SURFACE_CURVE('',#617,(#621,#628),.PCURVE_S1.);
#617 = LINE('',#618,#619);
#618 = CARTESIAN_POINT('',(2.45,1.858258593415,-0.9999999));
#619 = VECTOR('',#620,1.);
#620 = DIRECTION('',(-0.,-0.,-1.));
#621 = PCURVE('',#329,#622);
#622 = DEFINITIONAL_REPRESENTATION('',(#623),#627);
#623 = LINE('',#624,#625);
#624 = CARTESIAN_POINT('',(1.,-11.85825859341));
#625 = VECTOR('',#626,1.);
#626 = DIRECTION('',(-1.,0.));
#627 = ( GEOMETRIC_REPRESENTATION_CONTEXT(2) 
PARAMETRIC_REPRESENTATION_CONTEXT() REPRESENTATION_CONTEXT('2D SPACE',''
  ) );
#628 = PCURVE('',#629,#634);
#629 = CYLINDRICAL_SURFACE('',#630,3.075);
#630 = AXIS2_PLACEMENT_3D('',#631,#632,#633);
#631 = CARTESIAN_POINT('',(0.,0.,-0.9999999));
#632 = DIRECTION('',(-0.,-0.,-1.));
#633 = DIRECTION('',(1.,0.,0.));
#634 = DEFINITIONAL_REPRESENTATION('',(#635),#639);
#635 = LINE('',#636,#637);
#636 = CARTESIAN_POINT('',(-0.648901744715,0.));
#637 = VECTOR('',#638,1.);
#638 = DIRECTION('',(-0.,1.));
#639 = ( GEOMETRIC_REPRESENTATION_CONTEXT(2) 
PARAMETRIC_REPRESENTATION_CONTEXT() REPRESENTATION_CONTEXT('2D SPACE',''
  ) );
#640 = ORIENTED_EDGE('',*,*,#641,.F.);
#641 = EDGE_CURVE('',#642,#612,#644,.T.);
#642 = VERTEX_POINT('',#643);
#643 = CARTESIAN_POINT('',(2.45,-1.858258593415,14.6000001));
#644 = SURFACE_CURVE('',#645,(#649,#656),.PCURVE_S1.);
#645 = LINE('',#646,#647);
#646 = CARTESIAN_POINT('',(2.45,-5.,14.6000001));
#647 = VECTOR('',#648,1.);
#648 = DIRECTION('',(0.,1.,0.));
#649 = PCURVE('',#329,#650);
#650 = DEFINITIONAL_REPRESENTATION('',(#651),#655);
#651 = LINE('',#652,#653);
#652 = CARTESIAN_POINT('',(16.6,-5.));
#653 = VECTOR('',#654,1.);
#654 = DIRECTION('',(0.,-1.));
#655 = ( GEOMETRIC_REPRESENTATION_CONTEXT(2) 
PARAMETRIC_REPRESENTATION_CONTEXT() REPRESENTATION_CONTEXT('2D SPACE',''
  ) );
#656 = PCURVE('',#657,#662);
#657 = PLANE('',#658);
#658 = AXIS2_PLACEMENT_3D('',#659,#660,#661);
#659 = CARTESIAN_POINT('',(0.,2.079956866336E-16,14.6000001));
#660 = DIRECTION('',(0.,0.,1.));
#661 = DIRECTION('',(1.,0.,-0.));
#662 = DEFINITIONAL_REPRESENTATION('',(#663),#667);
#663 = LINE('',#664,#665);
#664 = CARTESIAN_POINT('',(2.45,-5.));
#665 = VECTOR('',#666,1.);
#666 = DIRECTION('',(0.,1.));
#667 = ( GEOMETRIC_REPRESENTATION_CONTEXT(2) 
PARAMETRIC_REPRESENTATION_CONTEXT() REPRESENTATION_CONTEXT('2D SPACE',''
  ) );
#668 = ORIENTED_EDGE('',*,*,#669,.T.);
#669 = EDGE_CURVE('',#642,#670,#672,.T.);
#670 = VERTEX_POINT('',#671);
#671 = CARTESIAN_POINT('',(2.45,-1.858258593415,0.5900001));
#672 = SURFACE_CURVE('',#673,(#677,#684),.PCURVE_S1.);
#673 = LINE('',#674,#675);
#674 = CARTESIAN_POINT('',(2.45,-1.858258593415,-0.9999999));
#675 = VECTOR('',#676,1.);
#676 = DIRECTION('',(-0.,-0.,-1.));
#677 = PCURVE('',#329,#678);
#678 = DEFINITIONAL_REPRESENTATION('',(#679),#683);
#679 = LINE('',#680,#681);
#680 = CARTESIAN_POINT('',(1.,-8.141741406585));
#681 = VECTOR('',#682,1.);
#682 = DIRECTION('',(-1.,0.));
#683 = ( GEOMETRIC_REPRESENTATION_CONTEXT(2) 
PARAMETRIC_REPRESENTATION_CONTEXT() REPRESENTATION_CONTEXT('2D SPACE',''
  ) );
#684 = PCURVE('',#629,#685);
#685 = DEFINITIONAL_REPRESENTATION('',(#686),#690);
#686 = LINE('',#687,#688);
#687 = CARTESIAN_POINT('',(-5.634283562464,0.));
#688 = VECTOR('',#689,1.);
#689 = DIRECTION('',(-0.,1.));
#690 = ( GEOMETRIC_REPRESENTATION_CONTEXT(2) 
PARAMETRIC_REPRESENTATION_CONTEXT() REPRESENTATION_CONTEXT('2D SPACE',''
  ) );
#691 = ORIENTED_EDGE('',*,*,#692,.T.);
#692 = EDGE_CURVE('',#670,#693,#695,.T.);
#693 = VERTEX_POINT('',#694);
#694 = CARTESIAN_POINT('',(2.45,-1.687638883174,0.6900001));
#695 = SURFACE_CURVE('',#696,(#701,#708),.PCURVE_S1.);
#696 = HYPERBOLA('',#697,2.45,2.45);
#697 = AXIS2_PLACEMENT_3D('',#698,#699,#700);
#698 = CARTESIAN_POINT('',(2.45,0.,3.6650001));
#699 = DIRECTION('',(1.,0.,0.));
#700 = DIRECTION('',(0.,0.,-1.));
#701 = PCURVE('',#329,#702);
#702 = DEFINITIONAL_REPRESENTATION('',(#703),#707);
#703 = HYPERBOLA('',#704,2.45,2.45);
#704 = AXIS2_PLACEMENT_2D('',#705,#706);
#705 = CARTESIAN_POINT('',(5.665,-10.));
#706 = DIRECTION('',(-1.,0.));
#707 = ( GEOMETRIC_REPRESENTATION_CONTEXT(2) 
PARAMETRIC_REPRESENTATION_CONTEXT() REPRESENTATION_CONTEXT('2D SPACE',''
  ) );
#708 = PCURVE('',#596,#709);
#709 = DEFINITIONAL_REPRESENTATION('',(#710),#717);
#710 = B_SPLINE_CURVE_WITH_KNOTS('',5,(#711,#712,#713,#714,#715,#716),
  .UNSPECIFIED.,.F.,.F.,(6,6),(-0.816405280803,-0.643493547246),
  .PIECEWISE_BEZIER_KNOTS.);
#711 = CARTESIAN_POINT('',(-5.544781131159,-0.362146245305));
#712 = CARTESIAN_POINT('',(-5.570356286513,-0.439261776853));
#713 = CARTESIAN_POINT('',(-5.596675601127,-0.51142484843));
#714 = CARTESIAN_POINT('',(-5.623733116461,-0.578827579512));
#715 = CARTESIAN_POINT('',(-5.651514321925,-0.641637487018));
#716 = CARTESIAN_POINT('',(-5.67999390157,-0.7));
#717 = ( GEOMETRIC_REPRESENTATION_CONTEXT(2) 
PARAMETRIC_REPRESENTATION_CONTEXT() REPRESENTATION_CONTEXT('2D SPACE',''
  ) );
#718 = ORIENTED_EDGE('',*,*,#719,.F.);
#719 = EDGE_CURVE('',#720,#693,#722,.T.);
#720 = VERTEX_POINT('',#721);
#721 = CARTESIAN_POINT('',(2.45,1.687638883174,0.6900001));
#722 = SURFACE_CURVE('',#723,(#727,#734),.PCURVE_S1.);
#723 = LINE('',#724,#725);
#724 = CARTESIAN_POINT('',(2.45,-5.,0.6900001));
#725 = VECTOR('',#726,1.);
#726 = DIRECTION('',(0.,-1.,0.));
#727 = PCURVE('',#329,#728);
#728 = DEFINITIONAL_REPRESENTATION('',(#729),#733);
#729 = LINE('',#730,#731);
#730 = CARTESIAN_POINT('',(2.69,-5.));
#731 = VECTOR('',#732,1.);
#732 = DIRECTION('',(0.,1.));
#733 = ( GEOMETRIC_REPRESENTATION_CONTEXT(2) 
PARAMETRIC_REPRESENTATION_CONTEXT() REPRESENTATION_CONTEXT('2D SPACE',''
  ) );
#734 = PCURVE('',#735,#740);
#735 = PLANE('',#736);
#736 = AXIS2_PLACEMENT_3D('',#737,#738,#739);
#737 = CARTESIAN_POINT('',(0.,0.,0.6900001));
#738 = DIRECTION('',(0.,0.,1.));
#739 = DIRECTION('',(1.,0.,-0.));
#740 = DEFINITIONAL_REPRESENTATION('',(#741),#745);
#741 = LINE('',#742,#743);
#742 = CARTESIAN_POINT('',(2.45,-5.));
#743 = VECTOR('',#744,1.);
#744 = DIRECTION('',(0.,-1.));
#745 = ( GEOMETRIC_REPRESENTATION_CONTEXT(2) 
PARAMETRIC_REPRESENTATION_CONTEXT() REPRESENTATION_CONTEXT('2D SPACE',''
  ) );
#746 = ORIENTED_EDGE('',*,*,#747,.T.);
#747 = EDGE_CURVE('',#720,#614,#748,.T.);
#748 = SURFACE_CURVE('',#749,(#754,#761),.PCURVE_S1.);
#749 = HYPERBOLA('',#750,2.45,2.45);
#750 = AXIS2_PLACEMENT_3D('',#751,#752,#753);
#751 = CARTESIAN_POINT('',(2.45,0.,3.6650001));
#752 = DIRECTION('',(1.,0.,0.));
#753 = DIRECTION('',(0.,0.,-1.));
#754 = PCURVE('',#329,#755);
#755 = DEFINITIONAL_REPRESENTATION('',(#756),#760);
#756 = HYPERBOLA('',#757,2.45,2.45);
#757 = AXIS2_PLACEMENT_2D('',#758,#759);
#758 = CARTESIAN_POINT('',(5.665,-10.));
#759 = DIRECTION('',(-1.,0.));
#760 = ( GEOMETRIC_REPRESENTATION_CONTEXT(2) 
PARAMETRIC_REPRESENTATION_CONTEXT() REPRESENTATION_CONTEXT('2D SPACE',''
  ) );
#761 = PCURVE('',#596,#762);
#762 = DEFINITIONAL_REPRESENTATION('',(#763),#770);
#763 = B_SPLINE_CURVE_WITH_KNOTS('',5,(#764,#765,#766,#767,#768,#769),
  .UNSPECIFIED.,.F.,.F.,(6,6),(0.643493547246,0.816405280803),
  .PIECEWISE_BEZIER_KNOTS.);
#764 = CARTESIAN_POINT('',(-0.60319140561,-0.7));
#765 = CARTESIAN_POINT('',(-0.631670985254,-0.641637487018));
#766 = CARTESIAN_POINT('',(-0.659452190719,-0.578827579512));
#767 = CARTESIAN_POINT('',(-0.686509706053,-0.51142484843));
#768 = CARTESIAN_POINT('',(-0.712829020666,-0.439261776853));
#769 = CARTESIAN_POINT('',(-0.738404176021,-0.362146245305));
#770 = ( GEOMETRIC_REPRESENTATION_CONTEXT(2) 
PARAMETRIC_REPRESENTATION_CONTEXT() REPRESENTATION_CONTEXT('2D SPACE',''
  ) );
#771 = FACE_BOUND('',#772,.F.);
#772 = EDGE_LOOP('',(#773));
#773 = ORIENTED_EDGE('',*,*,#312,.T.);
#774 = ADVANCED_FACE('',(#775,#806),#557,.F.);
#775 = FACE_BOUND('',#776,.F.);
#776 = EDGE_LOOP('',(#777));
#777 = ORIENTED_EDGE('',*,*,#778,.T.);
#778 = EDGE_CURVE('',#779,#779,#781,.T.);
#779 = VERTEX_POINT('',#780);
#780 = CARTESIAN_POINT('',(15.5,0.,13.7000001));
#781 = SURFACE_CURVE('',#782,(#787,#794),.PCURVE_S1.);
#782 = CIRCLE('',#783,15.5);
#783 = AXIS2_PLACEMENT_3D('',#784,#785,#786);
#784 = CARTESIAN_POINT('',(0.,0.,13.7000001));
#785 = DIRECTION('',(0.,0.,1.));
#786 = DIRECTION('',(1.,0.,0.));
#787 = PCURVE('',#557,#788);
#788 = DEFINITIONAL_REPRESENTATION('',(#789),#793);
#789 = CIRCLE('',#790,15.5);
#790 = AXIS2_PLACEMENT_2D('',#791,#792);
#791 = CARTESIAN_POINT('',(7.057755522784E-16,-7.788169249974E-16));
#792 = DIRECTION('',(1.,0.));
#793 = ( GEOMETRIC_REPRESENTATION_CONTEXT(2) 
PARAMETRIC_REPRESENTATION_CONTEXT() REPRESENTATION_CONTEXT('2D SPACE',''
  ) );
#794 = PCURVE('',#795,#800);
#795 = CYLINDRICAL_SURFACE('',#796,15.5);
#796 = AXIS2_PLACEMENT_3D('',#797,#798,#799);
#797 = CARTESIAN_POINT('',(0.,0.,13.7000001));
#798 = DIRECTION('',(-0.,-0.,-1.));
#799 = DIRECTION('',(1.,0.,0.));
#800 = DEFINITIONAL_REPRESENTATION('',(#801),#805);
#801 = LINE('',#802,#803);
#802 = CARTESIAN_POINT('',(-0.,0.));
#803 = VECTOR('',#804,1.);
#804 = DIRECTION('',(-1.,0.));
#805 = ( GEOMETRIC_REPRESENTATION_CONTEXT(2) 
PARAMETRIC_REPRESENTATION_CONTEXT() REPRESENTATION_CONTEXT('2D SPACE',''
  ) );
#806 = FACE_BOUND('',#807,.F.);
#807 = EDGE_LOOP('',(#808));
#808 = ORIENTED_EDGE('',*,*,#542,.F.);
#809 = ADVANCED_FACE('',(#810),#596,.F.);
#810 = FACE_BOUND('',#811,.F.);
#811 = EDGE_LOOP('',(#812,#835,#857,#858,#880,#881,#903,#904));
#812 = ORIENTED_EDGE('',*,*,#813,.T.);
#813 = EDGE_CURVE('',#580,#814,#816,.T.);
#814 = VERTEX_POINT('',#815);
#815 = CARTESIAN_POINT('',(2.975,-7.286648454927E-16,0.6900001));
#816 = SEAM_CURVE('',#817,(#821,#828),.PCURVE_S1.);
#817 = LINE('',#818,#819);
#818 = CARTESIAN_POINT('',(3.675,-9.001153973733E-16,-9.9999E-03));
#819 = VECTOR('',#820,1.);
#820 = DIRECTION('',(-0.707106781187,1.731912112471E-16,0.707106781187)
  );
#821 = PCURVE('',#596,#822);
#822 = DEFINITIONAL_REPRESENTATION('',(#823),#827);
#823 = LINE('',#824,#825);
#824 = CARTESIAN_POINT('',(-6.28318530718,0.));
#825 = VECTOR('',#826,1.);
#826 = DIRECTION('',(-0.,-1.));
#827 = ( GEOMETRIC_REPRESENTATION_CONTEXT(2) 
PARAMETRIC_REPRESENTATION_CONTEXT() REPRESENTATION_CONTEXT('2D SPACE',''
  ) );
#828 = PCURVE('',#596,#829);
#829 = DEFINITIONAL_REPRESENTATION('',(#830),#834);
#830 = LINE('',#831,#832);
#831 = CARTESIAN_POINT('',(0.,-0.));
#832 = VECTOR('',#833,1.);
#833 = DIRECTION('',(-0.,-1.));
#834 = ( GEOMETRIC_REPRESENTATION_CONTEXT(2) 
PARAMETRIC_REPRESENTATION_CONTEXT() REPRESENTATION_CONTEXT('2D SPACE',''
  ) );
#835 = ORIENTED_EDGE('',*,*,#836,.F.);
#836 = EDGE_CURVE('',#693,#814,#837,.T.);
#837 = SURFACE_CURVE('',#838,(#843,#850),.PCURVE_S1.);
#838 = CIRCLE('',#839,2.975);
#839 = AXIS2_PLACEMENT_3D('',#840,#841,#842);
#840 = CARTESIAN_POINT('',(0.,0.,0.6900001));
#841 = DIRECTION('',(0.,0.,1.));
#842 = DIRECTION('',(1.,0.,-0.));
#843 = PCURVE('',#596,#844);
#844 = DEFINITIONAL_REPRESENTATION('',(#845),#849);
#845 = LINE('',#846,#847);
#846 = CARTESIAN_POINT('',(-0.,-0.7));
#847 = VECTOR('',#848,1.);
#848 = DIRECTION('',(-1.,-0.));
#849 = ( GEOMETRIC_REPRESENTATION_CONTEXT(2) 
PARAMETRIC_REPRESENTATION_CONTEXT() REPRESENTATION_CONTEXT('2D SPACE',''
  ) );
#850 = PCURVE('',#735,#851);
#851 = DEFINITIONAL_REPRESENTATION('',(#852),#856);
#852 = CIRCLE('',#853,2.975);
#853 = AXIS2_PLACEMENT_2D('',#854,#855);
#854 = CARTESIAN_POINT('',(0.,0.));
#855 = DIRECTION('',(1.,0.));
#856 = ( GEOMETRIC_REPRESENTATION_CONTEXT(2) 
PARAMETRIC_REPRESENTATION_CONTEXT() REPRESENTATION_CONTEXT('2D SPACE',''
  ) );
#857 = ORIENTED_EDGE('',*,*,#692,.F.);
#858 = ORIENTED_EDGE('',*,*,#859,.T.);
#859 = EDGE_CURVE('',#670,#614,#860,.T.);
#860 = SURFACE_CURVE('',#861,(#866,#873),.PCURVE_S1.);
#861 = CIRCLE('',#862,3.075);
#862 = AXIS2_PLACEMENT_3D('',#863,#864,#865);
#863 = CARTESIAN_POINT('',(0.,0.,0.5900001));
#864 = DIRECTION('',(0.,-0.,-1.));
#865 = DIRECTION('',(0.,1.,-0.));
#866 = PCURVE('',#596,#867);
#867 = DEFINITIONAL_REPRESENTATION('',(#868),#872);
#868 = LINE('',#869,#870);
#869 = CARTESIAN_POINT('',(-7.853981633974,-0.6));
#870 = VECTOR('',#871,1.);
#871 = DIRECTION('',(1.,-0.));
#872 = ( GEOMETRIC_REPRESENTATION_CONTEXT(2) 
PARAMETRIC_REPRESENTATION_CONTEXT() REPRESENTATION_CONTEXT('2D SPACE',''
  ) );
#873 = PCURVE('',#629,#874);
#874 = DEFINITIONAL_REPRESENTATION('',(#875),#879);
#875 = LINE('',#876,#877);
#876 = CARTESIAN_POINT('',(-7.853981633974,-1.59));
#877 = VECTOR('',#878,1.);
#878 = DIRECTION('',(1.,-0.));
#879 = ( GEOMETRIC_REPRESENTATION_CONTEXT(2) 
PARAMETRIC_REPRESENTATION_CONTEXT() REPRESENTATION_CONTEXT('2D SPACE',''
  ) );
#880 = ORIENTED_EDGE('',*,*,#747,.F.);
#881 = ORIENTED_EDGE('',*,*,#882,.F.);
#882 = EDGE_CURVE('',#814,#720,#883,.T.);
#883 = SURFACE_CURVE('',#884,(#889,#896),.PCURVE_S1.);
#884 = CIRCLE('',#885,2.975);
#885 = AXIS2_PLACEMENT_3D('',#886,#887,#888);
#886 = CARTESIAN_POINT('',(0.,0.,0.6900001));
#887 = DIRECTION('',(0.,0.,1.));
#888 = DIRECTION('',(1.,0.,-0.));
#889 = PCURVE('',#596,#890);
#890 = DEFINITIONAL_REPRESENTATION('',(#891),#895);
#891 = LINE('',#892,#893);
#892 = CARTESIAN_POINT('',(-0.,-0.7));
#893 = VECTOR('',#894,1.);
#894 = DIRECTION('',(-1.,-0.));
#895 = ( GEOMETRIC_REPRESENTATION_CONTEXT(2) 
PARAMETRIC_REPRESENTATION_CONTEXT() REPRESENTATION_CONTEXT('2D SPACE',''
  ) );
#896 = PCURVE('',#735,#897);
#897 = DEFINITIONAL_REPRESENTATION('',(#898),#902);
#898 = CIRCLE('',#899,2.975);
#899 = AXIS2_PLACEMENT_2D('',#900,#901);
#900 = CARTESIAN_POINT('',(0.,0.));
#901 = DIRECTION('',(1.,0.));
#902 = ( GEOMETRIC_REPRESENTATION_CONTEXT(2) 
PARAMETRIC_REPRESENTATION_CONTEXT() REPRESENTATION_CONTEXT('2D SPACE',''
  ) );
#903 = ORIENTED_EDGE('',*,*,#813,.F.);
#904 = ORIENTED_EDGE('',*,*,#579,.T.);
#905 = ADVANCED_FACE('',(#906),#629,.F.);
#906 = FACE_BOUND('',#907,.T.);
#907 = EDGE_LOOP('',(#908,#909,#910,#911));
#908 = ORIENTED_EDGE('',*,*,#669,.T.);
#909 = ORIENTED_EDGE('',*,*,#859,.T.);
#910 = ORIENTED_EDGE('',*,*,#611,.F.);
#911 = ORIENTED_EDGE('',*,*,#912,.T.);
#912 = EDGE_CURVE('',#612,#642,#913,.T.);
#913 = SURFACE_CURVE('',#914,(#919,#926),.PCURVE_S1.);
#914 = CIRCLE('',#915,3.075);
#915 = AXIS2_PLACEMENT_3D('',#916,#917,#918);
#916 = CARTESIAN_POINT('',(0.,0.,14.6000001));
#917 = DIRECTION('',(0.,0.,1.));
#918 = DIRECTION('',(1.,0.,0.));
#919 = PCURVE('',#629,#920);
#920 = DEFINITIONAL_REPRESENTATION('',(#921),#925);
#921 = LINE('',#922,#923);
#922 = CARTESIAN_POINT('',(-0.,-15.6));
#923 = VECTOR('',#924,1.);
#924 = DIRECTION('',(-1.,0.));
#925 = ( GEOMETRIC_REPRESENTATION_CONTEXT(2) 
PARAMETRIC_REPRESENTATION_CONTEXT() REPRESENTATION_CONTEXT('2D SPACE',''
  ) );
#926 = PCURVE('',#657,#927);
#927 = DEFINITIONAL_REPRESENTATION('',(#928),#932);
#928 = CIRCLE('',#929,3.075);
#929 = AXIS2_PLACEMENT_2D('',#930,#931);
#930 = CARTESIAN_POINT('',(0.,-2.079956866336E-16));
#931 = DIRECTION('',(1.,0.));
#932 = ( GEOMETRIC_REPRESENTATION_CONTEXT(2) 
PARAMETRIC_REPRESENTATION_CONTEXT() REPRESENTATION_CONTEXT('2D SPACE',''
  ) );
#933 = ADVANCED_FACE('',(#934),#657,.F.);
#934 = FACE_BOUND('',#935,.F.);
#935 = EDGE_LOOP('',(#936,#937));
#936 = ORIENTED_EDGE('',*,*,#641,.T.);
#937 = ORIENTED_EDGE('',*,*,#912,.T.);
#938 = ADVANCED_FACE('',(#939),#735,.F.);
#939 = FACE_BOUND('',#940,.F.);
#940 = EDGE_LOOP('',(#941,#942,#943));
#941 = ORIENTED_EDGE('',*,*,#836,.T.);
#942 = ORIENTED_EDGE('',*,*,#882,.T.);
#943 = ORIENTED_EDGE('',*,*,#719,.T.);
#944 = ADVANCED_FACE('',(#945),#795,.T.);
#945 = FACE_BOUND('',#946,.F.);
#946 = EDGE_LOOP('',(#947,#948,#971,#998));
#947 = ORIENTED_EDGE('',*,*,#778,.F.);
#948 = ORIENTED_EDGE('',*,*,#949,.F.);
#949 = EDGE_CURVE('',#950,#779,#952,.T.);
#950 = VERTEX_POINT('',#951);
#951 = CARTESIAN_POINT('',(15.5,0.,19.7000001));
#952 = SEAM_CURVE('',#953,(#957,#964),.PCURVE_S1.);
#953 = LINE('',#954,#955);
#954 = CARTESIAN_POINT('',(15.5,0.,19.7000001));
#955 = VECTOR('',#956,1.);
#956 = DIRECTION('',(0.,0.,-1.));
#957 = PCURVE('',#795,#958);
#958 = DEFINITIONAL_REPRESENTATION('',(#959),#963);
#959 = LINE('',#960,#961);
#960 = CARTESIAN_POINT('',(-0.,-6.));
#961 = VECTOR('',#962,1.);
#962 = DIRECTION('',(0.,1.));
#963 = ( GEOMETRIC_REPRESENTATION_CONTEXT(2) 
PARAMETRIC_REPRESENTATION_CONTEXT() REPRESENTATION_CONTEXT('2D SPACE',''
  ) );
#964 = PCURVE('',#795,#965);
#965 = DEFINITIONAL_REPRESENTATION('',(#966),#970);
#966 = LINE('',#967,#968);
#967 = CARTESIAN_POINT('',(-6.28318530718,-6.));
#968 = VECTOR('',#969,1.);
#969 = DIRECTION('',(0.,1.));
#970 = ( GEOMETRIC_REPRESENTATION_CONTEXT(2) 
PARAMETRIC_REPRESENTATION_CONTEXT() REPRESENTATION_CONTEXT('2D SPACE',''
  ) );
#971 = ORIENTED_EDGE('',*,*,#972,.T.);
#972 = EDGE_CURVE('',#950,#950,#973,.T.);
#973 = SURFACE_CURVE('',#974,(#979,#986),.PCURVE_S1.);
#974 = CIRCLE('',#975,15.5);
#975 = AXIS2_PLACEMENT_3D('',#976,#977,#978);
#976 = CARTESIAN_POINT('',(0.,0.,19.7000001));
#977 = DIRECTION('',(0.,0.,1.));
#978 = DIRECTION('',(1.,0.,0.));
#979 = PCURVE('',#795,#980);
#980 = DEFINITIONAL_REPRESENTATION('',(#981),#985);
#981 = LINE('',#982,#983);
#982 = CARTESIAN_POINT('',(-0.,-6.));
#983 = VECTOR('',#984,1.);
#984 = DIRECTION('',(-1.,0.));
#985 = ( GEOMETRIC_REPRESENTATION_CONTEXT(2) 
PARAMETRIC_REPRESENTATION_CONTEXT() REPRESENTATION_CONTEXT('2D SPACE',''
  ) );
#986 = PCURVE('',#987,#992);
#987 = PLANE('',#988);
#988 = AXIS2_PLACEMENT_3D('',#989,#990,#991);
#989 = CARTESIAN_POINT('',(-7.057755522784E-16,7.788169249974E-16,
    19.7000001));
#990 = DIRECTION('',(0.,0.,1.));
#991 = DIRECTION('',(1.,0.,-0.));
#992 = DEFINITIONAL_REPRESENTATION('',(#993),#997);
#993 = CIRCLE('',#994,15.5);
#994 = AXIS2_PLACEMENT_2D('',#995,#996);
#995 = CARTESIAN_POINT('',(7.057755522784E-16,-7.788169249974E-16));
#996 = DIRECTION('',(1.,0.));
#997 = ( GEOMETRIC_REPRESENTATION_CONTEXT(2) 
PARAMETRIC_REPRESENTATION_CONTEXT() REPRESENTATION_CONTEXT('2D SPACE',''
  ) );
#998 = ORIENTED_EDGE('',*,*,#949,.T.);
#999 = ADVANCED_FACE('',(#1000,#1003,#1038,#1073,#1108,#1143,#1178,#1213
    ,#1248,#1283),#987,.T.);
#1000 = FACE_BOUND('',#1001,.T.);
#1001 = EDGE_LOOP('',(#1002));
#1002 = ORIENTED_EDGE('',*,*,#972,.T.);
#1003 = FACE_BOUND('',#1004,.T.);
#1004 = EDGE_LOOP('',(#1005));
#1005 = ORIENTED_EDGE('',*,*,#1006,.T.);
#1006 = EDGE_CURVE('',#1007,#1007,#1009,.T.);
#1007 = VERTEX_POINT('',#1008);
#1008 = CARTESIAN_POINT('',(1.55,-12.,19.7000001));
#1009 = SURFACE_CURVE('',#1010,(#1015,#1026),.PCURVE_S1.);
#1010 = CIRCLE('',#1011,1.55);
#1011 = AXIS2_PLACEMENT_3D('',#1012,#1013,#1014);
#1012 = CARTESIAN_POINT('',(-2.204364238465E-15,-12.,19.7000001));
#1013 = DIRECTION('',(0.,0.,-1.));
#1014 = DIRECTION('',(1.,0.,0.));
#1015 = PCURVE('',#987,#1016);
#1016 = DEFINITIONAL_REPRESENTATION('',(#1017),#1025);
#1017 = ( BOUNDED_CURVE() B_SPLINE_CURVE(2,(#1018,#1019,#1020,#1021,
#1022,#1023,#1024),.UNSPECIFIED.,.T.,.F.) B_SPLINE_CURVE_WITH_KNOTS((1,2
    ,2,2,2,1),(-2.094395102393,0.,2.094395102393,4.188790204786,
6.28318530718,8.377580409573),.UNSPECIFIED.) CURVE() 
GEOMETRIC_REPRESENTATION_ITEM() RATIONAL_B_SPLINE_CURVE((1.,0.5,1.,0.5,
1.,0.5,1.)) REPRESENTATION_ITEM('') );
#1018 = CARTESIAN_POINT('',(1.55,-12.));
#1019 = CARTESIAN_POINT('',(1.55,-14.68467875173));
#1020 = CARTESIAN_POINT('',(-0.775,-13.34233937586));
#1021 = CARTESIAN_POINT('',(-3.1,-12.));
#1022 = CARTESIAN_POINT('',(-0.775,-10.65766062413));
#1023 = CARTESIAN_POINT('',(1.55,-9.315321248268));
#1024 = CARTESIAN_POINT('',(1.55,-12.));
#1025 = ( GEOMETRIC_REPRESENTATION_CONTEXT(2) 
PARAMETRIC_REPRESENTATION_CONTEXT() REPRESENTATION_CONTEXT('2D SPACE',''
  ) );
#1026 = PCURVE('',#1027,#1032);
#1027 = CYLINDRICAL_SURFACE('',#1028,1.55);
#1028 = AXIS2_PLACEMENT_3D('',#1029,#1030,#1031);
#1029 = CARTESIAN_POINT('',(-2.204364238465E-15,-12.,14.2000001));
#1030 = DIRECTION('',(-0.,-0.,-1.));
#1031 = DIRECTION('',(1.,0.,0.));
#1032 = DEFINITIONAL_REPRESENTATION('',(#1033),#1037);
#1033 = LINE('',#1034,#1035);
#1034 = CARTESIAN_POINT('',(-6.28318530718,-5.5));
#1035 = VECTOR('',#1036,1.);
#1036 = DIRECTION('',(1.,-0.));
#1037 = ( GEOMETRIC_REPRESENTATION_CONTEXT(2) 
PARAMETRIC_REPRESENTATION_CONTEXT() REPRESENTATION_CONTEXT('2D SPACE',''
  ) );
#1038 = FACE_BOUND('',#1039,.T.);
#1039 = EDGE_LOOP('',(#1040));
#1040 = ORIENTED_EDGE('',*,*,#1041,.T.);
#1041 = EDGE_CURVE('',#1042,#1042,#1044,.T.);
#1042 = VERTEX_POINT('',#1043);
#1043 = CARTESIAN_POINT('',(-4.106854249492,-5.656854249492,19.7000001)
  );
#1044 = SURFACE_CURVE('',#1045,(#1050,#1061),.PCURVE_S1.);
#1045 = CIRCLE('',#1046,1.55);
#1046 = AXIS2_PLACEMENT_3D('',#1047,#1048,#1049);
#1047 = CARTESIAN_POINT('',(-5.656854249492,-5.656854249492,19.7000001)
  );
#1048 = DIRECTION('',(0.,0.,-1.));
#1049 = DIRECTION('',(1.,0.,0.));
#1050 = PCURVE('',#987,#1051);
#1051 = DEFINITIONAL_REPRESENTATION('',(#1052),#1060);
#1052 = ( BOUNDED_CURVE() B_SPLINE_CURVE(2,(#1053,#1054,#1055,#1056,
#1057,#1058,#1059),.UNSPECIFIED.,.T.,.F.) B_SPLINE_CURVE_WITH_KNOTS((1,2
    ,2,2,2,1),(-2.094395102393,0.,2.094395102393,4.188790204786,
6.28318530718,8.377580409573),.UNSPECIFIED.) CURVE() 
GEOMETRIC_REPRESENTATION_ITEM() RATIONAL_B_SPLINE_CURVE((1.,0.5,1.,0.5,
1.,0.5,1.)) REPRESENTATION_ITEM('') );
#1053 = CARTESIAN_POINT('',(-4.106854249492,-5.656854249492));
#1054 = CARTESIAN_POINT('',(-4.106854249492,-8.341533001224));
#1055 = CARTESIAN_POINT('',(-6.431854249492,-6.999193625358));
#1056 = CARTESIAN_POINT('',(-8.756854249492,-5.656854249492));
#1057 = CARTESIAN_POINT('',(-6.431854249492,-4.314514873627));
#1058 = CARTESIAN_POINT('',(-4.106854249492,-2.972175497761));
#1059 = CARTESIAN_POINT('',(-4.106854249492,-5.656854249492));
#1060 = ( GEOMETRIC_REPRESENTATION_CONTEXT(2) 
PARAMETRIC_REPRESENTATION_CONTEXT() REPRESENTATION_CONTEXT('2D SPACE',''
  ) );
#1061 = PCURVE('',#1062,#1067);
#1062 = CYLINDRICAL_SURFACE('',#1063,1.55);
#1063 = AXIS2_PLACEMENT_3D('',#1064,#1065,#1066);
#1064 = CARTESIAN_POINT('',(-5.656854249492,-5.656854249492,14.2000001)
  );
#1065 = DIRECTION('',(-0.,-0.,-1.));
#1066 = DIRECTION('',(1.,0.,0.));
#1067 = DEFINITIONAL_REPRESENTATION('',(#1068),#1072);
#1068 = LINE('',#1069,#1070);
#1069 = CARTESIAN_POINT('',(-6.28318530718,-5.5));
#1070 = VECTOR('',#1071,1.);
#1071 = DIRECTION('',(1.,-0.));
#1072 = ( GEOMETRIC_REPRESENTATION_CONTEXT(2) 
PARAMETRIC_REPRESENTATION_CONTEXT() REPRESENTATION_CONTEXT('2D SPACE',''
  ) );
#1073 = FACE_BOUND('',#1074,.T.);
#1074 = EDGE_LOOP('',(#1075));
#1075 = ORIENTED_EDGE('',*,*,#1076,.T.);
#1076 = EDGE_CURVE('',#1077,#1077,#1079,.T.);
#1077 = VERTEX_POINT('',#1078);
#1078 = CARTESIAN_POINT('',(7.206854249492,-5.656854249492,19.7000001));
#1079 = SURFACE_CURVE('',#1080,(#1085,#1096),.PCURVE_S1.);
#1080 = CIRCLE('',#1081,1.55);
#1081 = AXIS2_PLACEMENT_3D('',#1082,#1083,#1084);
#1082 = CARTESIAN_POINT('',(5.656854249492,-5.656854249492,19.7000001));
#1083 = DIRECTION('',(0.,0.,-1.));
#1084 = DIRECTION('',(1.,0.,0.));
#1085 = PCURVE('',#987,#1086);
#1086 = DEFINITIONAL_REPRESENTATION('',(#1087),#1095);
#1087 = ( BOUNDED_CURVE() B_SPLINE_CURVE(2,(#1088,#1089,#1090,#1091,
#1092,#1093,#1094),.UNSPECIFIED.,.T.,.F.) B_SPLINE_CURVE_WITH_KNOTS((1,2
    ,2,2,2,1),(-2.094395102393,0.,2.094395102393,4.188790204786,
6.28318530718,8.377580409573),.UNSPECIFIED.) CURVE() 
GEOMETRIC_REPRESENTATION_ITEM() RATIONAL_B_SPLINE_CURVE((1.,0.5,1.,0.5,
1.,0.5,1.)) REPRESENTATION_ITEM('') );
#1088 = CARTESIAN_POINT('',(7.206854249492,-5.656854249492));
#1089 = CARTESIAN_POINT('',(7.206854249492,-8.341533001224));
#1090 = CARTESIAN_POINT('',(4.881854249492,-6.999193625358));
#1091 = CARTESIAN_POINT('',(2.556854249492,-5.656854249492));
#1092 = CARTESIAN_POINT('',(4.881854249492,-4.314514873627));
#1093 = CARTESIAN_POINT('',(7.206854249492,-2.972175497761));
#1094 = CARTESIAN_POINT('',(7.206854249492,-5.656854249492));
#1095 = ( GEOMETRIC_REPRESENTATION_CONTEXT(2) 
PARAMETRIC_REPRESENTATION_CONTEXT() REPRESENTATION_CONTEXT('2D SPACE',''
  ) );
#1096 = PCURVE('',#1097,#1102);
#1097 = CYLINDRICAL_SURFACE('',#1098,1.55);
#1098 = AXIS2_PLACEMENT_3D('',#1099,#1100,#1101);
#1099 = CARTESIAN_POINT('',(5.656854249492,-5.656854249492,14.2000001));
#1100 = DIRECTION('',(-0.,-0.,-1.));
#1101 = DIRECTION('',(1.,0.,0.));
#1102 = DEFINITIONAL_REPRESENTATION('',(#1103),#1107);
#1103 = LINE('',#1104,#1105);
#1104 = CARTESIAN_POINT('',(-6.28318530718,-5.5));
#1105 = VECTOR('',#1106,1.);
#1106 = DIRECTION('',(1.,-0.));
#1107 = ( GEOMETRIC_REPRESENTATION_CONTEXT(2) 
PARAMETRIC_REPRESENTATION_CONTEXT() REPRESENTATION_CONTEXT('2D SPACE',''
  ) );
#1108 = FACE_BOUND('',#1109,.T.);
#1109 = EDGE_LOOP('',(#1110));
#1110 = ORIENTED_EDGE('',*,*,#1111,.T.);
#1111 = EDGE_CURVE('',#1112,#1112,#1114,.T.);
#1112 = VERTEX_POINT('',#1113);
#1113 = CARTESIAN_POINT('',(-10.45,1.469576158977E-15,19.7000001));
#1114 = SURFACE_CURVE('',#1115,(#1120,#1131),.PCURVE_S1.);
#1115 = CIRCLE('',#1116,1.55);
#1116 = AXIS2_PLACEMENT_3D('',#1117,#1118,#1119);
#1117 = CARTESIAN_POINT('',(-12.,1.469576158977E-15,19.7000001));
#1118 = DIRECTION('',(0.,0.,-1.));
#1119 = DIRECTION('',(1.,0.,0.));
#1120 = PCURVE('',#987,#1121);
#1121 = DEFINITIONAL_REPRESENTATION('',(#1122),#1130);
#1122 = ( BOUNDED_CURVE() B_SPLINE_CURVE(2,(#1123,#1124,#1125,#1126,
#1127,#1128,#1129),.UNSPECIFIED.,.T.,.F.) B_SPLINE_CURVE_WITH_KNOTS((1,2
    ,2,2,2,1),(-2.094395102393,0.,2.094395102393,4.188790204786,
6.28318530718,8.377580409573),.UNSPECIFIED.) CURVE() 
GEOMETRIC_REPRESENTATION_ITEM() RATIONAL_B_SPLINE_CURVE((1.,0.5,1.,0.5,
1.,0.5,1.)) REPRESENTATION_ITEM('') );
#1123 = CARTESIAN_POINT('',(-10.45,6.907592339795E-16));
#1124 = CARTESIAN_POINT('',(-10.45,-2.684678751732));
#1125 = CARTESIAN_POINT('',(-12.775,-1.342339375866));
#1126 = CARTESIAN_POINT('',(-15.1,3.111187262438E-16));
#1127 = CARTESIAN_POINT('',(-12.775,1.342339375866));
#1128 = CARTESIAN_POINT('',(-10.45,2.684678751732));
#1129 = CARTESIAN_POINT('',(-10.45,6.907592339795E-16));
#1130 = ( GEOMETRIC_REPRESENTATION_CONTEXT(2) 
PARAMETRIC_REPRESENTATION_CONTEXT() REPRESENTATION_CONTEXT('2D SPACE',''
  ) );
#1131 = PCURVE('',#1132,#1137);
#1132 = CYLINDRICAL_SURFACE('',#1133,1.55);
#1133 = AXIS2_PLACEMENT_3D('',#1134,#1135,#1136);
#1134 = CARTESIAN_POINT('',(-12.,1.469576158977E-15,14.2000001));
#1135 = DIRECTION('',(-0.,-0.,-1.));
#1136 = DIRECTION('',(1.,0.,0.));
#1137 = DEFINITIONAL_REPRESENTATION('',(#1138),#1142);
#1138 = LINE('',#1139,#1140);
#1139 = CARTESIAN_POINT('',(-6.28318530718,-5.5));
#1140 = VECTOR('',#1141,1.);
#1141 = DIRECTION('',(1.,-0.));
#1142 = ( GEOMETRIC_REPRESENTATION_CONTEXT(2) 
PARAMETRIC_REPRESENTATION_CONTEXT() REPRESENTATION_CONTEXT('2D SPACE',''
  ) );
#1143 = FACE_BOUND('',#1144,.T.);
#1144 = EDGE_LOOP('',(#1145));
#1145 = ORIENTED_EDGE('',*,*,#1146,.T.);
#1146 = EDGE_CURVE('',#1147,#1147,#1149,.T.);
#1147 = VERTEX_POINT('',#1148);
#1148 = CARTESIAN_POINT('',(-4.106854249492,5.656854249492,19.7000001));
#1149 = SURFACE_CURVE('',#1150,(#1155,#1166),.PCURVE_S1.);
#1150 = CIRCLE('',#1151,1.55);
#1151 = AXIS2_PLACEMENT_3D('',#1152,#1153,#1154);
#1152 = CARTESIAN_POINT('',(-5.656854249492,5.656854249492,19.7000001));
#1153 = DIRECTION('',(0.,0.,-1.));
#1154 = DIRECTION('',(1.,0.,0.));
#1155 = PCURVE('',#987,#1156);
#1156 = DEFINITIONAL_REPRESENTATION('',(#1157),#1165);
#1157 = ( BOUNDED_CURVE() B_SPLINE_CURVE(2,(#1158,#1159,#1160,#1161,
#1162,#1163,#1164),.UNSPECIFIED.,.T.,.F.) B_SPLINE_CURVE_WITH_KNOTS((1,2
    ,2,2,2,1),(-2.094395102393,0.,2.094395102393,4.188790204786,
6.28318530718,8.377580409573),.UNSPECIFIED.) CURVE() 
GEOMETRIC_REPRESENTATION_ITEM() RATIONAL_B_SPLINE_CURVE((1.,0.5,1.,0.5,
1.,0.5,1.)) REPRESENTATION_ITEM('') );
#1158 = CARTESIAN_POINT('',(-4.106854249492,5.656854249492));
#1159 = CARTESIAN_POINT('',(-4.106854249492,2.972175497761));
#1160 = CARTESIAN_POINT('',(-6.431854249492,4.314514873626));
#1161 = CARTESIAN_POINT('',(-8.756854249492,5.656854249492));
#1162 = CARTESIAN_POINT('',(-6.431854249492,6.999193625358));
#1163 = CARTESIAN_POINT('',(-4.106854249492,8.341533001224));
#1164 = CARTESIAN_POINT('',(-4.106854249492,5.656854249492));
#1165 = ( GEOMETRIC_REPRESENTATION_CONTEXT(2) 
PARAMETRIC_REPRESENTATION_CONTEXT() REPRESENTATION_CONTEXT('2D SPACE',''
  ) );
#1166 = PCURVE('',#1167,#1172);
#1167 = CYLINDRICAL_SURFACE('',#1168,1.55);
#1168 = AXIS2_PLACEMENT_3D('',#1169,#1170,#1171);
#1169 = CARTESIAN_POINT('',(-5.656854249492,5.656854249492,14.2000001));
#1170 = DIRECTION('',(-0.,-0.,-1.));
#1171 = DIRECTION('',(1.,0.,0.));
#1172 = DEFINITIONAL_REPRESENTATION('',(#1173),#1177);
#1173 = LINE('',#1174,#1175);
#1174 = CARTESIAN_POINT('',(-6.28318530718,-5.5));
#1175 = VECTOR('',#1176,1.);
#1176 = DIRECTION('',(1.,-0.));
#1177 = ( GEOMETRIC_REPRESENTATION_CONTEXT(2) 
PARAMETRIC_REPRESENTATION_CONTEXT() REPRESENTATION_CONTEXT('2D SPACE',''
  ) );
#1178 = FACE_BOUND('',#1179,.T.);
#1179 = EDGE_LOOP('',(#1180));
#1180 = ORIENTED_EDGE('',*,*,#1181,.T.);
#1181 = EDGE_CURVE('',#1182,#1182,#1184,.T.);
#1182 = VERTEX_POINT('',#1183);
#1183 = CARTESIAN_POINT('',(3.9,0.,19.7000001));
#1184 = SURFACE_CURVE('',#1185,(#1190,#1201),.PCURVE_S1.);
#1185 = CIRCLE('',#1186,3.9);
#1186 = AXIS2_PLACEMENT_3D('',#1187,#1188,#1189);
#1187 = CARTESIAN_POINT('',(0.,0.,19.7000001));
#1188 = DIRECTION('',(0.,0.,-1.));
#1189 = DIRECTION('',(1.,0.,0.));
#1190 = PCURVE('',#987,#1191);
#1191 = DEFINITIONAL_REPRESENTATION('',(#1192),#1200);
#1192 = ( BOUNDED_CURVE() B_SPLINE_CURVE(2,(#1193,#1194,#1195,#1196,
#1197,#1198,#1199),.UNSPECIFIED.,.T.,.F.) B_SPLINE_CURVE_WITH_KNOTS((1,2
    ,2,2,2,1),(-2.094395102393,0.,2.094395102393,4.188790204786,
6.28318530718,8.377580409573),.UNSPECIFIED.) CURVE() 
GEOMETRIC_REPRESENTATION_ITEM() RATIONAL_B_SPLINE_CURVE((1.,0.5,1.,0.5,
1.,0.5,1.)) REPRESENTATION_ITEM('') );
#1193 = CARTESIAN_POINT('',(3.9,-7.788169249974E-16));
#1194 = CARTESIAN_POINT('',(3.9,-6.754998149519));
#1195 = CARTESIAN_POINT('',(-1.95,-3.377499074759));
#1196 = CARTESIAN_POINT('',(-7.8,-1.734041428332E-15));
#1197 = CARTESIAN_POINT('',(-1.95,3.377499074759));
#1198 = CARTESIAN_POINT('',(3.9,6.754998149519));
#1199 = CARTESIAN_POINT('',(3.9,-7.788169249974E-16));
#1200 = ( GEOMETRIC_REPRESENTATION_CONTEXT(2) 
PARAMETRIC_REPRESENTATION_CONTEXT() REPRESENTATION_CONTEXT('2D SPACE',''
  ) );
#1201 = PCURVE('',#1202,#1207);
#1202 = CYLINDRICAL_SURFACE('',#1203,3.9);
#1203 = AXIS2_PLACEMENT_3D('',#1204,#1205,#1206);
#1204 = CARTESIAN_POINT('',(0.,0.,19.6900001));
#1205 = DIRECTION('',(-0.,-0.,-1.));
#1206 = DIRECTION('',(1.,0.,0.));
#1207 = DEFINITIONAL_REPRESENTATION('',(#1208),#1212);
#1208 = LINE('',#1209,#1210);
#1209 = CARTESIAN_POINT('',(-6.28318530718,-1.E-02));
#1210 = VECTOR('',#1211,1.);
#1211 = DIRECTION('',(1.,-0.));
#1212 = ( GEOMETRIC_REPRESENTATION_CONTEXT(2) 
PARAMETRIC_REPRESENTATION_CONTEXT() REPRESENTATION_CONTEXT('2D SPACE',''
  ) );
#1213 = FACE_BOUND('',#1214,.T.);
#1214 = EDGE_LOOP('',(#1215));
#1215 = ORIENTED_EDGE('',*,*,#1216,.T.);
#1216 = EDGE_CURVE('',#1217,#1217,#1219,.T.);
#1217 = VERTEX_POINT('',#1218);
#1218 = CARTESIAN_POINT('',(7.206854249492,5.656854249492,19.7000001));
#1219 = SURFACE_CURVE('',#1220,(#1225,#1236),.PCURVE_S1.);
#1220 = CIRCLE('',#1221,1.55);
#1221 = AXIS2_PLACEMENT_3D('',#1222,#1223,#1224);
#1222 = CARTESIAN_POINT('',(5.656854249492,5.656854249492,19.7000001));
#1223 = DIRECTION('',(0.,0.,-1.));
#1224 = DIRECTION('',(1.,0.,0.));
#1225 = PCURVE('',#987,#1226);
#1226 = DEFINITIONAL_REPRESENTATION('',(#1227),#1235);
#1227 = ( BOUNDED_CURVE() B_SPLINE_CURVE(2,(#1228,#1229,#1230,#1231,
#1232,#1233,#1234),.UNSPECIFIED.,.T.,.F.) B_SPLINE_CURVE_WITH_KNOTS((1,2
    ,2,2,2,1),(-2.094395102393,0.,2.094395102393,4.188790204786,
6.28318530718,8.377580409573),.UNSPECIFIED.) CURVE() 
GEOMETRIC_REPRESENTATION_ITEM() RATIONAL_B_SPLINE_CURVE((1.,0.5,1.,0.5,
1.,0.5,1.)) REPRESENTATION_ITEM('') );
#1228 = CARTESIAN_POINT('',(7.206854249492,5.656854249492));
#1229 = CARTESIAN_POINT('',(7.206854249492,2.972175497761));
#1230 = CARTESIAN_POINT('',(4.881854249492,4.314514873626));
#1231 = CARTESIAN_POINT('',(2.556854249492,5.656854249492));
#1232 = CARTESIAN_POINT('',(4.881854249492,6.999193625358));
#1233 = CARTESIAN_POINT('',(7.206854249492,8.341533001224));
#1234 = CARTESIAN_POINT('',(7.206854249492,5.656854249492));
#1235 = ( GEOMETRIC_REPRESENTATION_CONTEXT(2) 
PARAMETRIC_REPRESENTATION_CONTEXT() REPRESENTATION_CONTEXT('2D SPACE',''
  ) );
#1236 = PCURVE('',#1237,#1242);
#1237 = CYLINDRICAL_SURFACE('',#1238,1.55);
#1238 = AXIS2_PLACEMENT_3D('',#1239,#1240,#1241);
#1239 = CARTESIAN_POINT('',(5.656854249492,5.656854249492,14.2000001));
#1240 = DIRECTION('',(-0.,-0.,-1.));
#1241 = DIRECTION('',(1.,0.,0.));
#1242 = DEFINITIONAL_REPRESENTATION('',(#1243),#1247);
#1243 = LINE('',#1244,#1245);
#1244 = CARTESIAN_POINT('',(-6.28318530718,-5.5));
#1245 = VECTOR('',#1246,1.);
#1246 = DIRECTION('',(1.,-0.));
#1247 = ( GEOMETRIC_REPRESENTATION_CONTEXT(2) 
PARAMETRIC_REPRESENTATION_CONTEXT() REPRESENTATION_CONTEXT('2D SPACE',''
  ) );
#1248 = FACE_BOUND('',#1249,.T.);
#1249 = EDGE_LOOP('',(#1250));
#1250 = ORIENTED_EDGE('',*,*,#1251,.T.);
#1251 = EDGE_CURVE('',#1252,#1252,#1254,.T.);
#1252 = VERTEX_POINT('',#1253);
#1253 = CARTESIAN_POINT('',(13.55,0.,19.7000001));
#1254 = SURFACE_CURVE('',#1255,(#1260,#1271),.PCURVE_S1.);
#1255 = CIRCLE('',#1256,1.55);
#1256 = AXIS2_PLACEMENT_3D('',#1257,#1258,#1259);
#1257 = CARTESIAN_POINT('',(12.,0.,19.7000001));
#1258 = DIRECTION('',(0.,0.,-1.));
#1259 = DIRECTION('',(1.,0.,0.));
#1260 = PCURVE('',#987,#1261);
#1261 = DEFINITIONAL_REPRESENTATION('',(#1262),#1270);
#1262 = ( BOUNDED_CURVE() B_SPLINE_CURVE(2,(#1263,#1264,#1265,#1266,
#1267,#1268,#1269),.UNSPECIFIED.,.T.,.F.) B_SPLINE_CURVE_WITH_KNOTS((1,2
    ,2,2,2,1),(-2.094395102393,0.,2.094395102393,4.188790204786,
6.28318530718,8.377580409573),.UNSPECIFIED.) CURVE() 
GEOMETRIC_REPRESENTATION_ITEM() RATIONAL_B_SPLINE_CURVE((1.,0.5,1.,0.5,
1.,0.5,1.)) REPRESENTATION_ITEM('') );
#1263 = CARTESIAN_POINT('',(13.55,-7.788169249974E-16));
#1264 = CARTESIAN_POINT('',(13.55,-2.684678751732));
#1265 = CARTESIAN_POINT('',(11.225,-1.342339375866));
#1266 = CARTESIAN_POINT('',(8.9,-1.158457432733E-15));
#1267 = CARTESIAN_POINT('',(11.225,1.342339375866));
#1268 = CARTESIAN_POINT('',(13.55,2.684678751732));
#1269 = CARTESIAN_POINT('',(13.55,-7.788169249974E-16));
#1270 = ( GEOMETRIC_REPRESENTATION_CONTEXT(2) 
PARAMETRIC_REPRESENTATION_CONTEXT() REPRESENTATION_CONTEXT('2D SPACE',''
  ) );
#1271 = PCURVE('',#1272,#1277);
#1272 = CYLINDRICAL_SURFACE('',#1273,1.55);
#1273 = AXIS2_PLACEMENT_3D('',#1274,#1275,#1276);
#1274 = CARTESIAN_POINT('',(12.,0.,14.2000001));
#1275 = DIRECTION('',(-0.,-0.,-1.));
#1276 = DIRECTION('',(1.,0.,0.));
#1277 = DEFINITIONAL_REPRESENTATION('',(#1278),#1282);
#1278 = LINE('',#1279,#1280);
#1279 = CARTESIAN_POINT('',(-6.28318530718,-5.5));
#1280 = VECTOR('',#1281,1.);
#1281 = DIRECTION('',(1.,-0.));
#1282 = ( GEOMETRIC_REPRESENTATION_CONTEXT(2) 
PARAMETRIC_REPRESENTATION_CONTEXT() REPRESENTATION_CONTEXT('2D SPACE',''
  ) );
#1283 = FACE_BOUND('',#1284,.T.);
#1284 = EDGE_LOOP('',(#1285));
#1285 = ORIENTED_EDGE('',*,*,#1286,.T.);
#1286 = EDGE_CURVE('',#1287,#1287,#1289,.T.);
#1287 = VERTEX_POINT('',#1288);
#1288 = CARTESIAN_POINT('',(1.55,12.,19.7000001));
#1289 = SURFACE_CURVE('',#1290,(#1295,#1306),.PCURVE_S1.);
#1290 = CIRCLE('',#1291,1.55);
#1291 = AXIS2_PLACEMENT_3D('',#1292,#1293,#1294);
#1292 = CARTESIAN_POINT('',(7.347880794884E-16,12.,19.7000001));
#1293 = DIRECTION('',(0.,0.,-1.));
#1294 = DIRECTION('',(1.,0.,0.));
#1295 = PCURVE('',#987,#1296);
#1296 = DEFINITIONAL_REPRESENTATION('',(#1297),#1305);
#1297 = ( BOUNDED_CURVE() B_SPLINE_CURVE(2,(#1298,#1299,#1300,#1301,
#1302,#1303,#1304),.UNSPECIFIED.,.T.,.F.) B_SPLINE_CURVE_WITH_KNOTS((1,2
    ,2,2,2,1),(-2.094395102393,0.,2.094395102393,4.188790204786,
6.28318530718,8.377580409573),.UNSPECIFIED.) CURVE() 
GEOMETRIC_REPRESENTATION_ITEM() RATIONAL_B_SPLINE_CURVE((1.,0.5,1.,0.5,
1.,0.5,1.)) REPRESENTATION_ITEM('') );
#1298 = CARTESIAN_POINT('',(1.55,12.));
#1299 = CARTESIAN_POINT('',(1.55,9.315321248268));
#1300 = CARTESIAN_POINT('',(-0.775,10.657660624134));
#1301 = CARTESIAN_POINT('',(-3.1,12.));
#1302 = CARTESIAN_POINT('',(-0.775,13.342339375866));
#1303 = CARTESIAN_POINT('',(1.55,14.684678751732));
#1304 = CARTESIAN_POINT('',(1.55,12.));
#1305 = ( GEOMETRIC_REPRESENTATION_CONTEXT(2) 
PARAMETRIC_REPRESENTATION_CONTEXT() REPRESENTATION_CONTEXT('2D SPACE',''
  ) );
#1306 = PCURVE('',#1307,#1312);
#1307 = CYLINDRICAL_SURFACE('',#1308,1.55);
#1308 = AXIS2_PLACEMENT_3D('',#1309,#1310,#1311);
#1309 = CARTESIAN_POINT('',(7.347880794884E-16,12.,14.2000001));
#1310 = DIRECTION('',(-0.,-0.,-1.));
#1311 = DIRECTION('',(1.,0.,0.));
#1312 = DEFINITIONAL_REPRESENTATION('',(#1313),#1317);
#1313 = LINE('',#1314,#1315);
#1314 = CARTESIAN_POINT('',(-6.28318530718,-5.5));
#1315 = VECTOR('',#1316,1.);
#1316 = DIRECTION('',(1.,-0.));
#1317 = ( GEOMETRIC_REPRESENTATION_CONTEXT(2) 
PARAMETRIC_REPRESENTATION_CONTEXT() REPRESENTATION_CONTEXT('2D SPACE',''
  ) );
#1318 = ADVANCED_FACE('',(#1319),#1027,.F.);
#1319 = FACE_BOUND('',#1320,.T.);
#1320 = EDGE_LOOP('',(#1321,#1350,#1371,#1372));
#1321 = ORIENTED_EDGE('',*,*,#1322,.F.);
#1322 = EDGE_CURVE('',#1323,#1323,#1325,.T.);
#1323 = VERTEX_POINT('',#1324);
#1324 = CARTESIAN_POINT('',(1.55,-12.,14.2000001));
#1325 = SURFACE_CURVE('',#1326,(#1331,#1338),.PCURVE_S1.);
#1326 = CIRCLE('',#1327,1.55);
#1327 = AXIS2_PLACEMENT_3D('',#1328,#1329,#1330);
#1328 = CARTESIAN_POINT('',(-2.204364238465E-15,-12.,14.2000001));
#1329 = DIRECTION('',(0.,0.,1.));
#1330 = DIRECTION('',(1.,0.,0.));
#1331 = PCURVE('',#1027,#1332);
#1332 = DEFINITIONAL_REPRESENTATION('',(#1333),#1337);
#1333 = LINE('',#1334,#1335);
#1334 = CARTESIAN_POINT('',(-0.,0.));
#1335 = VECTOR('',#1336,1.);
#1336 = DIRECTION('',(-1.,0.));
#1337 = ( GEOMETRIC_REPRESENTATION_CONTEXT(2) 
PARAMETRIC_REPRESENTATION_CONTEXT() REPRESENTATION_CONTEXT('2D SPACE',''
  ) );
#1338 = PCURVE('',#1339,#1344);
#1339 = PLANE('',#1340);
#1340 = AXIS2_PLACEMENT_3D('',#1341,#1342,#1343);
#1341 = CARTESIAN_POINT('',(-2.315826030914E-15,-12.,14.2000001));
#1342 = DIRECTION('',(0.,0.,1.));
#1343 = DIRECTION('',(1.,0.,-0.));
#1344 = DEFINITIONAL_REPRESENTATION('',(#1345),#1349);
#1345 = CIRCLE('',#1346,1.55);
#1346 = AXIS2_PLACEMENT_2D('',#1347,#1348);
#1347 = CARTESIAN_POINT('',(1.114617924483E-16,3.552713678801E-15));
#1348 = DIRECTION('',(1.,0.));
#1349 = ( GEOMETRIC_REPRESENTATION_CONTEXT(2) 
PARAMETRIC_REPRESENTATION_CONTEXT() REPRESENTATION_CONTEXT('2D SPACE',''
  ) );
#1350 = ORIENTED_EDGE('',*,*,#1351,.T.);
#1351 = EDGE_CURVE('',#1323,#1007,#1352,.T.);
#1352 = SEAM_CURVE('',#1353,(#1357,#1364),.PCURVE_S1.);
#1353 = LINE('',#1354,#1355);
#1354 = CARTESIAN_POINT('',(1.55,-12.,14.2000001));
#1355 = VECTOR('',#1356,1.);
#1356 = DIRECTION('',(0.,0.,1.));
#1357 = PCURVE('',#1027,#1358);
#1358 = DEFINITIONAL_REPRESENTATION('',(#1359),#1363);
#1359 = LINE('',#1360,#1361);
#1360 = CARTESIAN_POINT('',(-6.28318530718,0.));
#1361 = VECTOR('',#1362,1.);
#1362 = DIRECTION('',(-0.,-1.));
#1363 = ( GEOMETRIC_REPRESENTATION_CONTEXT(2) 
PARAMETRIC_REPRESENTATION_CONTEXT() REPRESENTATION_CONTEXT('2D SPACE',''
  ) );
#1364 = PCURVE('',#1027,#1365);
#1365 = DEFINITIONAL_REPRESENTATION('',(#1366),#1370);
#1366 = LINE('',#1367,#1368);
#1367 = CARTESIAN_POINT('',(-0.,0.));
#1368 = VECTOR('',#1369,1.);
#1369 = DIRECTION('',(-0.,-1.));
#1370 = ( GEOMETRIC_REPRESENTATION_CONTEXT(2) 
PARAMETRIC_REPRESENTATION_CONTEXT() REPRESENTATION_CONTEXT('2D SPACE',''
  ) );
#1371 = ORIENTED_EDGE('',*,*,#1006,.F.);
#1372 = ORIENTED_EDGE('',*,*,#1351,.F.);
#1373 = ADVANCED_FACE('',(#1374),#1062,.F.);
#1374 = FACE_BOUND('',#1375,.T.);
#1375 = EDGE_LOOP('',(#1376,#1405,#1426,#1427));
#1376 = ORIENTED_EDGE('',*,*,#1377,.F.);
#1377 = EDGE_CURVE('',#1378,#1378,#1380,.T.);
#1378 = VERTEX_POINT('',#1379);
#1379 = CARTESIAN_POINT('',(-4.106854249492,-5.656854249492,14.2000001)
  );
#1380 = SURFACE_CURVE('',#1381,(#1386,#1393),.PCURVE_S1.);
#1381 = CIRCLE('',#1382,1.55);
#1382 = AXIS2_PLACEMENT_3D('',#1383,#1384,#1385);
#1383 = CARTESIAN_POINT('',(-5.656854249492,-5.656854249492,14.2000001)
  );
#1384 = DIRECTION('',(0.,0.,1.));
#1385 = DIRECTION('',(1.,0.,0.));
#1386 = PCURVE('',#1062,#1387);
#1387 = DEFINITIONAL_REPRESENTATION('',(#1388),#1392);
#1388 = LINE('',#1389,#1390);
#1389 = CARTESIAN_POINT('',(-0.,0.));
#1390 = VECTOR('',#1391,1.);
#1391 = DIRECTION('',(-1.,0.));
#1392 = ( GEOMETRIC_REPRESENTATION_CONTEXT(2) 
PARAMETRIC_REPRESENTATION_CONTEXT() REPRESENTATION_CONTEXT('2D SPACE',''
  ) );
#1393 = PCURVE('',#1394,#1399);
#1394 = PLANE('',#1395);
#1395 = AXIS2_PLACEMENT_3D('',#1396,#1397,#1398);
#1396 = CARTESIAN_POINT('',(-5.656854249492,-5.656854249492,14.2000001)
  );
#1397 = DIRECTION('',(0.,0.,1.));
#1398 = DIRECTION('',(1.,0.,-0.));
#1399 = DEFINITIONAL_REPRESENTATION('',(#1400),#1404);
#1400 = CIRCLE('',#1401,1.55);
#1401 = AXIS2_PLACEMENT_2D('',#1402,#1403);
#1402 = CARTESIAN_POINT('',(-8.881784197001E-16,0.));
#1403 = DIRECTION('',(1.,0.));
#1404 = ( GEOMETRIC_REPRESENTATION_CONTEXT(2) 
PARAMETRIC_REPRESENTATION_CONTEXT() REPRESENTATION_CONTEXT('2D SPACE',''
  ) );
#1405 = ORIENTED_EDGE('',*,*,#1406,.T.);
#1406 = EDGE_CURVE('',#1378,#1042,#1407,.T.);
#1407 = SEAM_CURVE('',#1408,(#1412,#1419),.PCURVE_S1.);
#1408 = LINE('',#1409,#1410);
#1409 = CARTESIAN_POINT('',(-4.106854249492,-5.656854249492,14.2000001)
  );
#1410 = VECTOR('',#1411,1.);
#1411 = DIRECTION('',(0.,0.,1.));
#1412 = PCURVE('',#1062,#1413);
#1413 = DEFINITIONAL_REPRESENTATION('',(#1414),#1418);
#1414 = LINE('',#1415,#1416);
#1415 = CARTESIAN_POINT('',(-6.28318530718,0.));
#1416 = VECTOR('',#1417,1.);
#1417 = DIRECTION('',(-0.,-1.));
#1418 = ( GEOMETRIC_REPRESENTATION_CONTEXT(2) 
PARAMETRIC_REPRESENTATION_CONTEXT() REPRESENTATION_CONTEXT('2D SPACE',''
  ) );
#1419 = PCURVE('',#1062,#1420);
#1420 = DEFINITIONAL_REPRESENTATION('',(#1421),#1425);
#1421 = LINE('',#1422,#1423);
#1422 = CARTESIAN_POINT('',(-0.,0.));
#1423 = VECTOR('',#1424,1.);
#1424 = DIRECTION('',(-0.,-1.));
#1425 = ( GEOMETRIC_REPRESENTATION_CONTEXT(2) 
PARAMETRIC_REPRESENTATION_CONTEXT() REPRESENTATION_CONTEXT('2D SPACE',''
  ) );
#1426 = ORIENTED_EDGE('',*,*,#1041,.F.);
#1427 = ORIENTED_EDGE('',*,*,#1406,.F.);
#1428 = ADVANCED_FACE('',(#1429),#1097,.F.);
#1429 = FACE_BOUND('',#1430,.T.);
#1430 = EDGE_LOOP('',(#1431,#1460,#1481,#1482));
#1431 = ORIENTED_EDGE('',*,*,#1432,.F.);
#1432 = EDGE_CURVE('',#1433,#1433,#1435,.T.);
#1433 = VERTEX_POINT('',#1434);
#1434 = CARTESIAN_POINT('',(7.206854249492,-5.656854249492,14.2000001));
#1435 = SURFACE_CURVE('',#1436,(#1441,#1448),.PCURVE_S1.);
#1436 = CIRCLE('',#1437,1.55);
#1437 = AXIS2_PLACEMENT_3D('',#1438,#1439,#1440);
#1438 = CARTESIAN_POINT('',(5.656854249492,-5.656854249492,14.2000001));
#1439 = DIRECTION('',(0.,0.,1.));
#1440 = DIRECTION('',(1.,0.,0.));
#1441 = PCURVE('',#1097,#1442);
#1442 = DEFINITIONAL_REPRESENTATION('',(#1443),#1447);
#1443 = LINE('',#1444,#1445);
#1444 = CARTESIAN_POINT('',(-0.,0.));
#1445 = VECTOR('',#1446,1.);
#1446 = DIRECTION('',(-1.,0.));
#1447 = ( GEOMETRIC_REPRESENTATION_CONTEXT(2) 
PARAMETRIC_REPRESENTATION_CONTEXT() REPRESENTATION_CONTEXT('2D SPACE',''
  ) );
#1448 = PCURVE('',#1449,#1454);
#1449 = PLANE('',#1450);
#1450 = AXIS2_PLACEMENT_3D('',#1451,#1452,#1453);
#1451 = CARTESIAN_POINT('',(5.656854249492,-5.656854249492,14.2000001));
#1452 = DIRECTION('',(0.,0.,1.));
#1453 = DIRECTION('',(1.,0.,-0.));
#1454 = DEFINITIONAL_REPRESENTATION('',(#1455),#1459);
#1455 = CIRCLE('',#1456,1.55);
#1456 = AXIS2_PLACEMENT_2D('',#1457,#1458);
#1457 = CARTESIAN_POINT('',(0.,0.));
#1458 = DIRECTION('',(1.,0.));
#1459 = ( GEOMETRIC_REPRESENTATION_CONTEXT(2) 
PARAMETRIC_REPRESENTATION_CONTEXT() REPRESENTATION_CONTEXT('2D SPACE',''
  ) );
#1460 = ORIENTED_EDGE('',*,*,#1461,.T.);
#1461 = EDGE_CURVE('',#1433,#1077,#1462,.T.);
#1462 = SEAM_CURVE('',#1463,(#1467,#1474),.PCURVE_S1.);
#1463 = LINE('',#1464,#1465);
#1464 = CARTESIAN_POINT('',(7.206854249492,-5.656854249492,14.2000001));
#1465 = VECTOR('',#1466,1.);
#1466 = DIRECTION('',(0.,0.,1.));
#1467 = PCURVE('',#1097,#1468);
#1468 = DEFINITIONAL_REPRESENTATION('',(#1469),#1473);
#1469 = LINE('',#1470,#1471);
#1470 = CARTESIAN_POINT('',(-6.28318530718,0.));
#1471 = VECTOR('',#1472,1.);
#1472 = DIRECTION('',(-0.,-1.));
#1473 = ( GEOMETRIC_REPRESENTATION_CONTEXT(2) 
PARAMETRIC_REPRESENTATION_CONTEXT() REPRESENTATION_CONTEXT('2D SPACE',''
  ) );
#1474 = PCURVE('',#1097,#1475);
#1475 = DEFINITIONAL_REPRESENTATION('',(#1476),#1480);
#1476 = LINE('',#1477,#1478);
#1477 = CARTESIAN_POINT('',(-0.,0.));
#1478 = VECTOR('',#1479,1.);
#1479 = DIRECTION('',(-0.,-1.));
#1480 = ( GEOMETRIC_REPRESENTATION_CONTEXT(2) 
PARAMETRIC_REPRESENTATION_CONTEXT() REPRESENTATION_CONTEXT('2D SPACE',''
  ) );
#1481 = ORIENTED_EDGE('',*,*,#1076,.F.);
#1482 = ORIENTED_EDGE('',*,*,#1461,.F.);
#1483 = ADVANCED_FACE('',(#1484),#1132,.F.);
#1484 = FACE_BOUND('',#1485,.T.);
#1485 = EDGE_LOOP('',(#1486,#1515,#1536,#1537));
#1486 = ORIENTED_EDGE('',*,*,#1487,.F.);
#1487 = EDGE_CURVE('',#1488,#1488,#1490,.T.);
#1488 = VERTEX_POINT('',#1489);
#1489 = CARTESIAN_POINT('',(-10.45,1.469576158977E-15,14.2000001));
#1490 = SURFACE_CURVE('',#1491,(#1496,#1503),.PCURVE_S1.);
#1491 = CIRCLE('',#1492,1.55);
#1492 = AXIS2_PLACEMENT_3D('',#1493,#1494,#1495);
#1493 = CARTESIAN_POINT('',(-12.,1.469576158977E-15,14.2000001));
#1494 = DIRECTION('',(0.,0.,1.));
#1495 = DIRECTION('',(1.,0.,0.));
#1496 = PCURVE('',#1132,#1497);
#1497 = DEFINITIONAL_REPRESENTATION('',(#1498),#1502);
#1498 = LINE('',#1499,#1500);
#1499 = CARTESIAN_POINT('',(-0.,0.));
#1500 = VECTOR('',#1501,1.);
#1501 = DIRECTION('',(-1.,0.));
#1502 = ( GEOMETRIC_REPRESENTATION_CONTEXT(2) 
PARAMETRIC_REPRESENTATION_CONTEXT() REPRESENTATION_CONTEXT('2D SPACE',''
  ) );
#1503 = PCURVE('',#1504,#1509);
#1504 = PLANE('',#1505);
#1505 = AXIS2_PLACEMENT_3D('',#1506,#1507,#1508);
#1506 = CARTESIAN_POINT('',(-12.,1.615262532439E-15,14.2000001));
#1507 = DIRECTION('',(0.,0.,1.));
#1508 = DIRECTION('',(1.,0.,-0.));
#1509 = DEFINITIONAL_REPRESENTATION('',(#1510),#1514);
#1510 = CIRCLE('',#1511,1.55);
#1511 = AXIS2_PLACEMENT_2D('',#1512,#1513);
#1512 = CARTESIAN_POINT('',(1.7763568394E-15,-1.456863734622E-16));
#1513 = DIRECTION('',(1.,0.));
#1514 = ( GEOMETRIC_REPRESENTATION_CONTEXT(2) 
PARAMETRIC_REPRESENTATION_CONTEXT() REPRESENTATION_CONTEXT('2D SPACE',''
  ) );
#1515 = ORIENTED_EDGE('',*,*,#1516,.T.);
#1516 = EDGE_CURVE('',#1488,#1112,#1517,.T.);
#1517 = SEAM_CURVE('',#1518,(#1522,#1529),.PCURVE_S1.);
#1518 = LINE('',#1519,#1520);
#1519 = CARTESIAN_POINT('',(-10.45,1.469576158977E-15,14.2000001));
#1520 = VECTOR('',#1521,1.);
#1521 = DIRECTION('',(0.,0.,1.));
#1522 = PCURVE('',#1132,#1523);
#1523 = DEFINITIONAL_REPRESENTATION('',(#1524),#1528);
#1524 = LINE('',#1525,#1526);
#1525 = CARTESIAN_POINT('',(-6.28318530718,0.));
#1526 = VECTOR('',#1527,1.);
#1527 = DIRECTION('',(-0.,-1.));
#1528 = ( GEOMETRIC_REPRESENTATION_CONTEXT(2) 
PARAMETRIC_REPRESENTATION_CONTEXT() REPRESENTATION_CONTEXT('2D SPACE',''
  ) );
#1529 = PCURVE('',#1132,#1530);
#1530 = DEFINITIONAL_REPRESENTATION('',(#1531),#1535);
#1531 = LINE('',#1532,#1533);
#1532 = CARTESIAN_POINT('',(-0.,0.));
#1533 = VECTOR('',#1534,1.);
#1534 = DIRECTION('',(-0.,-1.));
#1535 = ( GEOMETRIC_REPRESENTATION_CONTEXT(2) 
PARAMETRIC_REPRESENTATION_CONTEXT() REPRESENTATION_CONTEXT('2D SPACE',''
  ) );
#1536 = ORIENTED_EDGE('',*,*,#1111,.F.);
#1537 = ORIENTED_EDGE('',*,*,#1516,.F.);
#1538 = ADVANCED_FACE('',(#1539),#1167,.F.);
#1539 = FACE_BOUND('',#1540,.T.);
#1540 = EDGE_LOOP('',(#1541,#1570,#1591,#1592));
#1541 = ORIENTED_EDGE('',*,*,#1542,.F.);
#1542 = EDGE_CURVE('',#1543,#1543,#1545,.T.);
#1543 = VERTEX_POINT('',#1544);
#1544 = CARTESIAN_POINT('',(-4.106854249492,5.656854249492,14.2000001));
#1545 = SURFACE_CURVE('',#1546,(#1551,#1558),.PCURVE_S1.);
#1546 = CIRCLE('',#1547,1.55);
#1547 = AXIS2_PLACEMENT_3D('',#1548,#1549,#1550);
#1548 = CARTESIAN_POINT('',(-5.656854249492,5.656854249492,14.2000001));
#1549 = DIRECTION('',(0.,0.,1.));
#1550 = DIRECTION('',(1.,0.,0.));
#1551 = PCURVE('',#1167,#1552);
#1552 = DEFINITIONAL_REPRESENTATION('',(#1553),#1557);
#1553 = LINE('',#1554,#1555);
#1554 = CARTESIAN_POINT('',(-0.,0.));
#1555 = VECTOR('',#1556,1.);
#1556 = DIRECTION('',(-1.,0.));
#1557 = ( GEOMETRIC_REPRESENTATION_CONTEXT(2) 
PARAMETRIC_REPRESENTATION_CONTEXT() REPRESENTATION_CONTEXT('2D SPACE',''
  ) );
#1558 = PCURVE('',#1559,#1564);
#1559 = PLANE('',#1560);
#1560 = AXIS2_PLACEMENT_3D('',#1561,#1562,#1563);
#1561 = CARTESIAN_POINT('',(-5.656854249492,5.656854249492,14.2000001));
#1562 = DIRECTION('',(0.,0.,1.));
#1563 = DIRECTION('',(1.,0.,-0.));
#1564 = DEFINITIONAL_REPRESENTATION('',(#1565),#1569);
#1565 = CIRCLE('',#1566,1.55);
#1566 = AXIS2_PLACEMENT_2D('',#1567,#1568);
#1567 = CARTESIAN_POINT('',(-8.881784197001E-16,0.));
#1568 = DIRECTION('',(1.,0.));
#1569 = ( GEOMETRIC_REPRESENTATION_CONTEXT(2) 
PARAMETRIC_REPRESENTATION_CONTEXT() REPRESENTATION_CONTEXT('2D SPACE',''
  ) );
#1570 = ORIENTED_EDGE('',*,*,#1571,.T.);
#1571 = EDGE_CURVE('',#1543,#1147,#1572,.T.);
#1572 = SEAM_CURVE('',#1573,(#1577,#1584),.PCURVE_S1.);
#1573 = LINE('',#1574,#1575);
#1574 = CARTESIAN_POINT('',(-4.106854249492,5.656854249492,14.2000001));
#1575 = VECTOR('',#1576,1.);
#1576 = DIRECTION('',(0.,0.,1.));
#1577 = PCURVE('',#1167,#1578);
#1578 = DEFINITIONAL_REPRESENTATION('',(#1579),#1583);
#1579 = LINE('',#1580,#1581);
#1580 = CARTESIAN_POINT('',(-6.28318530718,0.));
#1581 = VECTOR('',#1582,1.);
#1582 = DIRECTION('',(-0.,-1.));
#1583 = ( GEOMETRIC_REPRESENTATION_CONTEXT(2) 
PARAMETRIC_REPRESENTATION_CONTEXT() REPRESENTATION_CONTEXT('2D SPACE',''
  ) );
#1584 = PCURVE('',#1167,#1585);
#1585 = DEFINITIONAL_REPRESENTATION('',(#1586),#1590);
#1586 = LINE('',#1587,#1588);
#1587 = CARTESIAN_POINT('',(-0.,0.));
#1588 = VECTOR('',#1589,1.);
#1589 = DIRECTION('',(-0.,-1.));
#1590 = ( GEOMETRIC_REPRESENTATION_CONTEXT(2) 
PARAMETRIC_REPRESENTATION_CONTEXT() REPRESENTATION_CONTEXT('2D SPACE',''
  ) );
#1591 = ORIENTED_EDGE('',*,*,#1146,.F.);
#1592 = ORIENTED_EDGE('',*,*,#1571,.F.);
#1593 = ADVANCED_FACE('',(#1594),#1202,.T.);
#1594 = FACE_BOUND('',#1595,.F.);
#1595 = EDGE_LOOP('',(#1596,#1597,#1620,#1647));
#1596 = ORIENTED_EDGE('',*,*,#1181,.T.);
#1597 = ORIENTED_EDGE('',*,*,#1598,.T.);
#1598 = EDGE_CURVE('',#1182,#1599,#1601,.T.);
#1599 = VERTEX_POINT('',#1600);
#1600 = CARTESIAN_POINT('',(3.9,0.,21.7000001));
#1601 = SEAM_CURVE('',#1602,(#1606,#1613),.PCURVE_S1.);
#1602 = LINE('',#1603,#1604);
#1603 = CARTESIAN_POINT('',(3.9,0.,19.6900001));
#1604 = VECTOR('',#1605,1.);
#1605 = DIRECTION('',(0.,0.,1.));
#1606 = PCURVE('',#1202,#1607);
#1607 = DEFINITIONAL_REPRESENTATION('',(#1608),#1612);
#1608 = LINE('',#1609,#1610);
#1609 = CARTESIAN_POINT('',(-6.28318530718,0.));
#1610 = VECTOR('',#1611,1.);
#1611 = DIRECTION('',(-0.,-1.));
#1612 = ( GEOMETRIC_REPRESENTATION_CONTEXT(2) 
PARAMETRIC_REPRESENTATION_CONTEXT() REPRESENTATION_CONTEXT('2D SPACE',''
  ) );
#1613 = PCURVE('',#1202,#1614);
#1614 = DEFINITIONAL_REPRESENTATION('',(#1615),#1619);
#1615 = LINE('',#1616,#1617);
#1616 = CARTESIAN_POINT('',(-0.,0.));
#1617 = VECTOR('',#1618,1.);
#1618 = DIRECTION('',(-0.,-1.));
#1619 = ( GEOMETRIC_REPRESENTATION_CONTEXT(2) 
PARAMETRIC_REPRESENTATION_CONTEXT() REPRESENTATION_CONTEXT('2D SPACE',''
  ) );
#1620 = ORIENTED_EDGE('',*,*,#1621,.T.);
#1621 = EDGE_CURVE('',#1599,#1599,#1622,.T.);
#1622 = SURFACE_CURVE('',#1623,(#1628,#1635),.PCURVE_S1.);
#1623 = CIRCLE('',#1624,3.9);
#1624 = AXIS2_PLACEMENT_3D('',#1625,#1626,#1627);
#1625 = CARTESIAN_POINT('',(0.,0.,21.7000001));
#1626 = DIRECTION('',(0.,0.,1.));
#1627 = DIRECTION('',(1.,0.,0.));
#1628 = PCURVE('',#1202,#1629);
#1629 = DEFINITIONAL_REPRESENTATION('',(#1630),#1634);
#1630 = LINE('',#1631,#1632);
#1631 = CARTESIAN_POINT('',(-0.,-2.01));
#1632 = VECTOR('',#1633,1.);
#1633 = DIRECTION('',(-1.,0.));
#1634 = ( GEOMETRIC_REPRESENTATION_CONTEXT(2) 
PARAMETRIC_REPRESENTATION_CONTEXT() REPRESENTATION_CONTEXT('2D SPACE',''
  ) );
#1635 = PCURVE('',#1636,#1641);
#1636 = PLANE('',#1637);
#1637 = AXIS2_PLACEMENT_3D('',#1638,#1639,#1640);
#1638 = CARTESIAN_POINT('',(-2.629692562576E-16,1.91421591121E-16,
    21.7000001));
#1639 = DIRECTION('',(0.,0.,1.));
#1640 = DIRECTION('',(1.,0.,-0.));
#1641 = DEFINITIONAL_REPRESENTATION('',(#1642),#1646);
#1642 = CIRCLE('',#1643,3.9);
#1643 = AXIS2_PLACEMENT_2D('',#1644,#1645);
#1644 = CARTESIAN_POINT('',(2.629692562576E-16,-1.91421591121E-16));
#1645 = DIRECTION('',(1.,0.));
#1646 = ( GEOMETRIC_REPRESENTATION_CONTEXT(2) 
PARAMETRIC_REPRESENTATION_CONTEXT() REPRESENTATION_CONTEXT('2D SPACE',''
  ) );
#1647 = ORIENTED_EDGE('',*,*,#1598,.F.);
#1648 = ADVANCED_FACE('',(#1649),#1237,.F.);
#1649 = FACE_BOUND('',#1650,.T.);
#1650 = EDGE_LOOP('',(#1651,#1680,#1701,#1702));
#1651 = ORIENTED_EDGE('',*,*,#1652,.F.);
#1652 = EDGE_CURVE('',#1653,#1653,#1655,.T.);
#1653 = VERTEX_POINT('',#1654);
#1654 = CARTESIAN_POINT('',(7.206854249492,5.656854249492,14.2000001));
#1655 = SURFACE_CURVE('',#1656,(#1661,#1668),.PCURVE_S1.);
#1656 = CIRCLE('',#1657,1.55);
#1657 = AXIS2_PLACEMENT_3D('',#1658,#1659,#1660);
#1658 = CARTESIAN_POINT('',(5.656854249492,5.656854249492,14.2000001));
#1659 = DIRECTION('',(0.,0.,1.));
#1660 = DIRECTION('',(1.,0.,0.));
#1661 = PCURVE('',#1237,#1662);
#1662 = DEFINITIONAL_REPRESENTATION('',(#1663),#1667);
#1663 = LINE('',#1664,#1665);
#1664 = CARTESIAN_POINT('',(-0.,0.));
#1665 = VECTOR('',#1666,1.);
#1666 = DIRECTION('',(-1.,0.));
#1667 = ( GEOMETRIC_REPRESENTATION_CONTEXT(2) 
PARAMETRIC_REPRESENTATION_CONTEXT() REPRESENTATION_CONTEXT('2D SPACE',''
  ) );
#1668 = PCURVE('',#1669,#1674);
#1669 = PLANE('',#1670);
#1670 = AXIS2_PLACEMENT_3D('',#1671,#1672,#1673);
#1671 = CARTESIAN_POINT('',(5.656854249492,5.656854249492,14.2000001));
#1672 = DIRECTION('',(0.,0.,1.));
#1673 = DIRECTION('',(1.,0.,-0.));
#1674 = DEFINITIONAL_REPRESENTATION('',(#1675),#1679);
#1675 = CIRCLE('',#1676,1.55);
#1676 = AXIS2_PLACEMENT_2D('',#1677,#1678);
#1677 = CARTESIAN_POINT('',(0.,0.));
#1678 = DIRECTION('',(1.,0.));
#1679 = ( GEOMETRIC_REPRESENTATION_CONTEXT(2) 
PARAMETRIC_REPRESENTATION_CONTEXT() REPRESENTATION_CONTEXT('2D SPACE',''
  ) );
#1680 = ORIENTED_EDGE('',*,*,#1681,.T.);
#1681 = EDGE_CURVE('',#1653,#1217,#1682,.T.);
#1682 = SEAM_CURVE('',#1683,(#1687,#1694),.PCURVE_S1.);
#1683 = LINE('',#1684,#1685);
#1684 = CARTESIAN_POINT('',(7.206854249492,5.656854249492,14.2000001));
#1685 = VECTOR('',#1686,1.);
#1686 = DIRECTION('',(0.,0.,1.));
#1687 = PCURVE('',#1237,#1688);
#1688 = DEFINITIONAL_REPRESENTATION('',(#1689),#1693);
#1689 = LINE('',#1690,#1691);
#1690 = CARTESIAN_POINT('',(-6.28318530718,0.));
#1691 = VECTOR('',#1692,1.);
#1692 = DIRECTION('',(-0.,-1.));
#1693 = ( GEOMETRIC_REPRESENTATION_CONTEXT(2) 
PARAMETRIC_REPRESENTATION_CONTEXT() REPRESENTATION_CONTEXT('2D SPACE',''
  ) );
#1694 = PCURVE('',#1237,#1695);
#1695 = DEFINITIONAL_REPRESENTATION('',(#1696),#1700);
#1696 = LINE('',#1697,#1698);
#1697 = CARTESIAN_POINT('',(-0.,0.));
#1698 = VECTOR('',#1699,1.);
#1699 = DIRECTION('',(-0.,-1.));
#1700 = ( GEOMETRIC_REPRESENTATION_CONTEXT(2) 
PARAMETRIC_REPRESENTATION_CONTEXT() REPRESENTATION_CONTEXT('2D SPACE',''
  ) );
#1701 = ORIENTED_EDGE('',*,*,#1216,.F.);
#1702 = ORIENTED_EDGE('',*,*,#1681,.F.);
#1703 = ADVANCED_FACE('',(#1704),#1272,.F.);
#1704 = FACE_BOUND('',#1705,.T.);
#1705 = EDGE_LOOP('',(#1706,#1735,#1756,#1757));
#1706 = ORIENTED_EDGE('',*,*,#1707,.F.);
#1707 = EDGE_CURVE('',#1708,#1708,#1710,.T.);
#1708 = VERTEX_POINT('',#1709);
#1709 = CARTESIAN_POINT('',(13.55,0.,14.2000001));
#1710 = SURFACE_CURVE('',#1711,(#1716,#1723),.PCURVE_S1.);
#1711 = CIRCLE('',#1712,1.55);
#1712 = AXIS2_PLACEMENT_3D('',#1713,#1714,#1715);
#1713 = CARTESIAN_POINT('',(12.,0.,14.2000001));
#1714 = DIRECTION('',(0.,0.,1.));
#1715 = DIRECTION('',(1.,0.,0.));
#1716 = PCURVE('',#1272,#1717);
#1717 = DEFINITIONAL_REPRESENTATION('',(#1718),#1722);
#1718 = LINE('',#1719,#1720);
#1719 = CARTESIAN_POINT('',(-0.,0.));
#1720 = VECTOR('',#1721,1.);
#1721 = DIRECTION('',(-1.,0.));
#1722 = ( GEOMETRIC_REPRESENTATION_CONTEXT(2) 
PARAMETRIC_REPRESENTATION_CONTEXT() REPRESENTATION_CONTEXT('2D SPACE',''
  ) );
#1723 = PCURVE('',#1724,#1729);
#1724 = PLANE('',#1725);
#1725 = AXIS2_PLACEMENT_3D('',#1726,#1727,#1728);
#1726 = CARTESIAN_POINT('',(12.,1.572814421311E-16,14.2000001));
#1727 = DIRECTION('',(0.,0.,1.));
#1728 = DIRECTION('',(1.,0.,-0.));
#1729 = DEFINITIONAL_REPRESENTATION('',(#1730),#1734);
#1730 = CIRCLE('',#1731,1.55);
#1731 = AXIS2_PLACEMENT_2D('',#1732,#1733);
#1732 = CARTESIAN_POINT('',(0.,-1.572814421311E-16));
#1733 = DIRECTION('',(1.,0.));
#1734 = ( GEOMETRIC_REPRESENTATION_CONTEXT(2) 
PARAMETRIC_REPRESENTATION_CONTEXT() REPRESENTATION_CONTEXT('2D SPACE',''
  ) );
#1735 = ORIENTED_EDGE('',*,*,#1736,.T.);
#1736 = EDGE_CURVE('',#1708,#1252,#1737,.T.);
#1737 = SEAM_CURVE('',#1738,(#1742,#1749),.PCURVE_S1.);
#1738 = LINE('',#1739,#1740);
#1739 = CARTESIAN_POINT('',(13.55,0.,14.2000001));
#1740 = VECTOR('',#1741,1.);
#1741 = DIRECTION('',(0.,0.,1.));
#1742 = PCURVE('',#1272,#1743);
#1743 = DEFINITIONAL_REPRESENTATION('',(#1744),#1748);
#1744 = LINE('',#1745,#1746);
#1745 = CARTESIAN_POINT('',(-6.28318530718,0.));
#1746 = VECTOR('',#1747,1.);
#1747 = DIRECTION('',(-0.,-1.));
#1748 = ( GEOMETRIC_REPRESENTATION_CONTEXT(2) 
PARAMETRIC_REPRESENTATION_CONTEXT() REPRESENTATION_CONTEXT('2D SPACE',''
  ) );
#1749 = PCURVE('',#1272,#1750);
#1750 = DEFINITIONAL_REPRESENTATION('',(#1751),#1755);
#1751 = LINE('',#1752,#1753);
#1752 = CARTESIAN_POINT('',(-0.,0.));
#1753 = VECTOR('',#1754,1.);
#1754 = DIRECTION('',(-0.,-1.));
#1755 = ( GEOMETRIC_REPRESENTATION_CONTEXT(2) 
PARAMETRIC_REPRESENTATION_CONTEXT() REPRESENTATION_CONTEXT('2D SPACE',''
  ) );
#1756 = ORIENTED_EDGE('',*,*,#1251,.F.);
#1757 = ORIENTED_EDGE('',*,*,#1736,.F.);
#1758 = ADVANCED_FACE('',(#1759),#1307,.F.);
#1759 = FACE_BOUND('',#1760,.T.);
#1760 = EDGE_LOOP('',(#1761,#1790,#1811,#1812));
#1761 = ORIENTED_EDGE('',*,*,#1762,.F.);
#1762 = EDGE_CURVE('',#1763,#1763,#1765,.T.);
#1763 = VERTEX_POINT('',#1764);
#1764 = CARTESIAN_POINT('',(1.55,12.,14.2000001));
#1765 = SURFACE_CURVE('',#1766,(#1771,#1778),.PCURVE_S1.);
#1766 = CIRCLE('',#1767,1.55);
#1767 = AXIS2_PLACEMENT_3D('',#1768,#1769,#1770);
#1768 = CARTESIAN_POINT('',(7.347880794884E-16,12.,14.2000001));
#1769 = DIRECTION('',(0.,0.,1.));
#1770 = DIRECTION('',(1.,0.,0.));
#1771 = PCURVE('',#1307,#1772);
#1772 = DEFINITIONAL_REPRESENTATION('',(#1773),#1777);
#1773 = LINE('',#1774,#1775);
#1774 = CARTESIAN_POINT('',(-0.,0.));
#1775 = VECTOR('',#1776,1.);
#1776 = DIRECTION('',(-1.,0.));
#1777 = ( GEOMETRIC_REPRESENTATION_CONTEXT(2) 
PARAMETRIC_REPRESENTATION_CONTEXT() REPRESENTATION_CONTEXT('2D SPACE',''
  ) );
#1778 = PCURVE('',#1779,#1784);
#1779 = PLANE('',#1780);
#1780 = AXIS2_PLACEMENT_3D('',#1781,#1782,#1783);
#1781 = CARTESIAN_POINT('',(7.168032952828E-16,12.,14.2000001));
#1782 = DIRECTION('',(0.,0.,1.));
#1783 = DIRECTION('',(1.,0.,-0.));
#1784 = DEFINITIONAL_REPRESENTATION('',(#1785),#1789);
#1785 = CIRCLE('',#1786,1.55);
#1786 = AXIS2_PLACEMENT_2D('',#1787,#1788);
#1787 = CARTESIAN_POINT('',(1.798478420565E-17,0.));
#1788 = DIRECTION('',(1.,0.));
#1789 = ( GEOMETRIC_REPRESENTATION_CONTEXT(2) 
PARAMETRIC_REPRESENTATION_CONTEXT() REPRESENTATION_CONTEXT('2D SPACE',''
  ) );
#1790 = ORIENTED_EDGE('',*,*,#1791,.T.);
#1791 = EDGE_CURVE('',#1763,#1287,#1792,.T.);
#1792 = SEAM_CURVE('',#1793,(#1797,#1804),.PCURVE_S1.);
#1793 = LINE('',#1794,#1795);
#1794 = CARTESIAN_POINT('',(1.55,12.,14.2000001));
#1795 = VECTOR('',#1796,1.);
#1796 = DIRECTION('',(0.,0.,1.));
#1797 = PCURVE('',#1307,#1798);
#1798 = DEFINITIONAL_REPRESENTATION('',(#1799),#1803);
#1799 = LINE('',#1800,#1801);
#1800 = CARTESIAN_POINT('',(-6.28318530718,0.));
#1801 = VECTOR('',#1802,1.);
#1802 = DIRECTION('',(-0.,-1.));
#1803 = ( GEOMETRIC_REPRESENTATION_CONTEXT(2) 
PARAMETRIC_REPRESENTATION_CONTEXT() REPRESENTATION_CONTEXT('2D SPACE',''
  ) );
#1804 = PCURVE('',#1307,#1805);
#1805 = DEFINITIONAL_REPRESENTATION('',(#1806),#1810);
#1806 = LINE('',#1807,#1808);
#1807 = CARTESIAN_POINT('',(-0.,0.));
#1808 = VECTOR('',#1809,1.);
#1809 = DIRECTION('',(-0.,-1.));
#1810 = ( GEOMETRIC_REPRESENTATION_CONTEXT(2) 
PARAMETRIC_REPRESENTATION_CONTEXT() REPRESENTATION_CONTEXT('2D SPACE',''
  ) );
#1811 = ORIENTED_EDGE('',*,*,#1286,.F.);
#1812 = ORIENTED_EDGE('',*,*,#1791,.F.);
#1813 = ADVANCED_FACE('',(#1814),#1339,.T.);
#1814 = FACE_BOUND('',#1815,.T.);
#1815 = EDGE_LOOP('',(#1816));
#1816 = ORIENTED_EDGE('',*,*,#1322,.T.);
#1817 = ADVANCED_FACE('',(#1818),#1394,.T.);
#1818 = FACE_BOUND('',#1819,.T.);
#1819 = EDGE_LOOP('',(#1820));
#1820 = ORIENTED_EDGE('',*,*,#1377,.T.);
#1821 = ADVANCED_FACE('',(#1822),#1449,.T.);
#1822 = FACE_BOUND('',#1823,.T.);
#1823 = EDGE_LOOP('',(#1824));
#1824 = ORIENTED_EDGE('',*,*,#1432,.T.);
#1825 = ADVANCED_FACE('',(#1826),#1504,.T.);
#1826 = FACE_BOUND('',#1827,.T.);
#1827 = EDGE_LOOP('',(#1828));
#1828 = ORIENTED_EDGE('',*,*,#1487,.T.);
#1829 = ADVANCED_FACE('',(#1830),#1559,.T.);
#1830 = FACE_BOUND('',#1831,.T.);
#1831 = EDGE_LOOP('',(#1832));
#1832 = ORIENTED_EDGE('',*,*,#1542,.T.);
#1833 = ADVANCED_FACE('',(#1834),#1636,.T.);
#1834 = FACE_BOUND('',#1835,.T.);
#1835 = EDGE_LOOP('',(#1836));
#1836 = ORIENTED_EDGE('',*,*,#1621,.T.);
#1837 = ADVANCED_FACE('',(#1838),#1669,.T.);
#1838 = FACE_BOUND('',#1839,.T.);
#1839 = EDGE_LOOP('',(#1840));
#1840 = ORIENTED_EDGE('',*,*,#1652,.T.);
#1841 = ADVANCED_FACE('',(#1842),#1724,.T.);
#1842 = FACE_BOUND('',#1843,.T.);
#1843 = EDGE_LOOP('',(#1844));
#1844 = ORIENTED_EDGE('',*,*,#1707,.T.);
#1845 = ADVANCED_FACE('',(#1846),#1779,.T.);
#1846 = FACE_BOUND('',#1847,.T.);
#1847 = EDGE_LOOP('',(#1848));
#1848 = ORIENTED_EDGE('',*,*,#1762,.T.);
#1849 = ( GEOMETRIC_REPRESENTATION_CONTEXT(3) 
GLOBAL_UNCERTAINTY_ASSIGNED_CONTEXT((#1853)) 
GLOBAL_UNIT_ASSIGNED_CONTEXT((#1850,#1851,#1852)) REPRESENTATION_CONTEXT
('Context #1','3D Context with UNIT and UNCERTAINTY') );
#1850 = ( LENGTH_UNIT() NAMED_UNIT(*) SI_UNIT(.MILLI.,.METRE.) );
#1851 = ( NAMED_UNIT(*) PLANE_ANGLE_UNIT() SI_UNIT($,.RADIAN.) );
#1852 = ( NAMED_UNIT(*) SI_UNIT($,.STERADIAN.) SOLID_ANGLE_UNIT() );
#1853 = UNCERTAINTY_MEASURE_WITH_UNIT(LENGTH_MEASURE(1.E-07),#1850,
  'distance_accuracy_value','confusion accuracy');
#1854 = PRODUCT_RELATED_PRODUCT_CATEGORY('part',$,(#7));
ENDSEC;
END-ISO-10303-21;
